<svg width="72" height="31" viewBox="0 0 72 31" fill="none" xmlns="http://www.w3.org/2000/svg">
<path d="M16.172 16.756C16.172 17.092 16.076 17.44 15.884 17.8C15.716 18.16 15.5 18.52 15.236 18.88C14.972 19.24 14.684 19.588 14.372 19.924C14.06 20.236 13.772 20.512 13.508 20.752C12.86 21.328 12.188 21.88 11.492 22.408C10.82 22.912 10.112 23.368 9.368 23.776C8.648 24.184 7.892 24.508 7.1 24.748C6.308 24.988 5.48 25.108 4.616 25.108C2 25.108 0.692 23.764 0.692 21.076C0.692 20.812 0.8 20.296 1.016 19.528C1.232 18.76 1.508 17.884 1.844 16.9C2.18 15.916 2.576 14.884 3.032 13.804C3.488 12.724 3.956 11.74 4.436 10.852C4.916 9.94 5.384 9.196 5.84 8.62C6.32 8.044 6.764 7.756 7.172 7.756C7.436 7.756 7.628 7.84 7.748 8.008C7.892 8.176 7.964 8.356 7.964 8.548C7.94 8.692 7.772 9.004 7.46 9.484C7.148 9.94 6.824 10.408 6.488 10.888C6.44 10.96 6.356 11.08 6.236 11.248C6.116 11.416 5.996 11.584 5.876 11.752C5.732 11.944 5.588 12.148 5.444 12.364C5.348 12.532 5.132 12.964 4.796 13.66C4.484 14.332 4.148 15.124 3.788 16.036C3.428 16.924 3.104 17.86 2.816 18.844C2.528 19.804 2.384 20.644 2.384 21.364C2.384 21.772 2.468 22.096 2.636 22.336C2.828 22.576 3.044 22.756 3.284 22.876C3.548 22.996 3.812 23.08 4.076 23.128C4.364 23.152 4.616 23.164 4.832 23.164C5.72 23.164 6.656 22.972 7.64 22.588C8.648 22.18 9.608 21.652 10.52 21.004C11.432 20.356 12.272 19.612 13.04 18.772C13.808 17.908 14.408 17.02 14.84 16.108C14.936 15.94 15.032 15.832 15.128 15.784C15.248 15.736 15.356 15.712 15.452 15.712C15.644 15.712 15.812 15.844 15.956 16.108C16.1 16.372 16.172 16.588 16.172 16.756ZM30.5166 14.74C30.5166 14.86 30.4566 14.956 30.3366 15.028C30.2406 15.1 30.1206 15.16 29.9766 15.208C29.8566 15.256 29.7246 15.316 29.5806 15.388C29.4366 15.436 29.3286 15.496 29.2566 15.568L29.5086 17.26C29.6526 18.196 29.7726 19.108 29.8686 19.996C29.9886 20.884 30.0486 21.724 30.0486 22.516C30.0486 23.14 29.9766 23.704 29.8326 24.208C29.7126 24.688 29.4846 24.928 29.1486 24.928C28.9806 24.928 28.8246 24.724 28.6806 24.316C28.5606 23.884 28.4526 23.404 28.3566 22.876C28.2846 22.324 28.2246 21.784 28.1766 21.256C28.1526 20.704 28.1406 20.308 28.1406 20.068C28.1406 19.9 28.1286 19.636 28.1046 19.276C28.0806 18.892 28.0446 18.496 27.9966 18.088C27.9486 17.656 27.9006 17.26 27.8526 16.9C27.8046 16.516 27.7686 16.228 27.7446 16.036C27.3366 16.06 26.7846 16.12 26.0886 16.216C25.3926 16.288 24.5406 16.456 23.5326 16.72V17.152C23.5326 17.68 23.5566 18.268 23.6046 18.916C23.6526 19.54 23.7006 20.188 23.7486 20.86C23.8206 21.508 23.8806 22.168 23.9286 22.84C23.9766 23.488 24.0006 24.112 24.0006 24.712C24.0006 24.952 23.9766 25.144 23.9286 25.288C23.8806 25.456 23.7726 25.54 23.6046 25.54C23.3166 25.54 23.0886 25.396 22.9206 25.108C22.7766 24.82 22.6686 24.484 22.5966 24.1C22.5246 23.692 22.4646 23.272 22.4166 22.84C22.3926 22.408 22.3686 22.048 22.3446 21.76C22.2486 21.136 22.1646 20.416 22.0926 19.6C22.0446 18.76 21.9966 17.908 21.9486 17.044C21.8526 17.044 21.7326 17.02 21.5886 16.972C21.4446 16.9 21.3006 16.828 21.1566 16.756C21.0126 16.66 20.8926 16.564 20.7966 16.468C20.7006 16.372 20.6526 16.264 20.6526 16.144C20.6526 15.856 20.7846 15.628 21.0486 15.46C21.3126 15.268 21.6006 15.112 21.9126 14.992C21.8886 14.776 21.8766 14.548 21.8766 14.308C21.8766 14.044 21.8766 13.6 21.8766 12.976C21.8766 12.712 21.8766 12.328 21.8766 11.824C21.8766 11.296 21.8766 10.708 21.8766 10.06C21.8766 9.388 21.8766 8.656 21.8766 7.864C21.9006 7.072 21.9126 6.268 21.9126 5.452C21.9366 5.26 21.9966 5.032 22.0926 4.768C22.1886 4.48 22.3446 4.336 22.5606 4.336C22.7286 4.336 22.8726 4.408 22.9926 4.552C23.1126 4.672 23.2086 4.828 23.2806 5.02C23.3526 5.212 23.4006 5.416 23.4246 5.632C23.4726 5.824 23.4966 5.992 23.4966 6.136V14.74C23.7126 14.74 24.0006 14.728 24.3606 14.704C24.7206 14.68 25.0926 14.656 25.4766 14.632C25.8606 14.584 26.2326 14.536 26.5926 14.488C26.9766 14.44 27.2886 14.392 27.5286 14.344L26.7006 6.784C26.6766 6.616 26.6526 6.436 26.6286 6.244C26.6286 6.052 26.6286 5.896 26.6286 5.776C26.6286 5.296 26.6886 4.912 26.8086 4.624C26.9526 4.312 27.1566 4.156 27.4206 4.156C27.7566 4.156 27.9606 4.312 28.0326 4.624C28.1046 4.936 28.1526 5.392 28.1766 5.992C28.2006 6.376 28.2246 6.76 28.2486 7.144C28.2726 7.504 28.3086 7.864 28.3566 8.224L29.1846 14.308C29.4726 14.308 29.7606 14.332 30.0486 14.38C30.3606 14.404 30.5166 14.524 30.5166 14.74ZM44.9107 12.292C44.9347 12.34 44.9587 12.376 44.9827 12.4C45.0067 12.4 45.0187 12.424 45.0187 12.472C45.0187 12.616 44.7187 12.892 44.1187 13.3C43.5187 13.684 42.7747 14.128 41.8867 14.632C40.9987 15.112 40.0627 15.604 39.0787 16.108C38.0947 16.588 37.2187 16.984 36.4507 17.296C36.4507 17.344 36.4267 17.5 36.3787 17.764C36.3307 18.028 36.3067 18.196 36.3067 18.268V18.952C36.3067 19.504 36.3907 20.056 36.5587 20.608C36.7267 21.136 36.9787 21.616 37.3147 22.048C37.6747 22.48 38.1067 22.828 38.6107 23.092C39.1147 23.356 39.7027 23.488 40.3747 23.488C40.6627 23.488 41.0107 23.44 41.4187 23.344C41.8507 23.224 42.2587 23.068 42.6427 22.876C43.0507 22.66 43.4107 22.408 43.7227 22.12C44.0347 21.832 44.2267 21.508 44.2987 21.148C44.5867 21.172 44.7547 21.256 44.8027 21.4C44.8747 21.544 44.9107 21.64 44.9107 21.688C44.9107 22.312 44.7547 22.852 44.4427 23.308C44.1547 23.74 43.7827 24.1 43.3267 24.388C42.8947 24.652 42.4267 24.856 41.9227 25C41.4427 25.12 41.0107 25.18 40.6267 25.18C38.5627 25.18 37.0627 24.604 36.1267 23.452C35.1907 22.3 34.7227 20.788 34.7227 18.916C34.7227 18.82 34.7467 18.604 34.7947 18.268C34.8427 17.932 34.8667 17.704 34.8667 17.584C34.8667 17.56 34.8187 17.536 34.7227 17.512C34.6267 17.464 34.5187 17.416 34.3987 17.368C34.3027 17.32 34.2067 17.248 34.1107 17.152C34.0387 17.032 34.0027 16.876 34.0027 16.684C34.0027 16.492 34.0747 16.336 34.2187 16.216C34.3627 16.096 34.5307 15.988 34.7227 15.892L35.0827 15.676C35.2987 14.764 35.5507 13.888 35.8387 13.048C36.1507 12.184 36.5347 11.32 36.9907 10.456C36.7987 10.456 36.5947 10.432 36.3787 10.384C36.1627 10.336 36.0547 10.168 36.0547 9.88C36.0547 9.544 36.2467 9.172 36.6307 8.764C37.0387 8.356 37.4947 7.972 37.9987 7.612C38.5267 7.252 39.0427 6.952 39.5467 6.712C40.0507 6.448 40.4107 6.316 40.6267 6.316C40.7227 6.316 40.7827 6.34 40.8067 6.388C40.8547 6.412 40.9267 6.424 41.0227 6.424C41.2147 6.424 41.4547 6.388 41.7427 6.316C42.0547 6.244 42.3787 6.16 42.7147 6.064C43.0507 5.968 43.3627 5.884 43.6507 5.812C43.9627 5.74 44.2147 5.704 44.4067 5.704C44.6227 5.704 44.7787 5.776 44.8747 5.92C44.9947 6.064 45.0547 6.22 45.0547 6.388C45.0547 6.58 44.9347 6.724 44.6947 6.82C44.4547 6.892 44.2387 6.952 44.0467 7C43.3747 7.12 42.6667 7.336 41.9227 7.648C41.2027 7.936 40.5307 8.26 39.9067 8.62C39.6667 8.884 39.3787 9.268 39.0427 9.772C38.7067 10.252 38.3827 10.804 38.0707 11.428C37.7587 12.052 37.4707 12.7 37.2067 13.372C36.9667 14.044 36.8107 14.68 36.7387 15.28L37.3507 14.992C39.1987 14.104 40.6987 13.408 41.8507 12.904C43.0267 12.4 43.9387 12.148 44.5867 12.148C44.7067 12.148 44.8147 12.196 44.9107 12.292ZM59.8198 5.668C59.8198 5.764 59.7838 5.836 59.7118 5.884C59.6398 5.932 59.5678 5.98 59.4957 6.028C59.3998 6.076 59.2918 6.112 59.1718 6.136C58.9798 6.136 58.8118 6.124 58.6677 6.1C58.5238 6.076 58.3558 6.064 58.1637 6.064C57.8998 6.064 57.3718 6.22 56.5797 6.532C55.8118 6.82 55.0078 7.192 54.1678 7.648C53.3278 8.104 52.5718 8.584 51.8998 9.088C51.2518 9.592 50.9157 10.036 50.8917 10.42L51.3238 12.868C51.4437 13.492 51.5397 14.056 51.6118 14.56C51.7077 15.064 51.7677 15.316 51.7917 15.316C51.8397 15.292 51.9958 15.196 52.2598 15.028C52.5478 14.836 52.8958 14.632 53.3038 14.416C53.7118 14.176 54.1558 13.924 54.6358 13.66C55.1398 13.396 55.6198 13.156 56.0757 12.94C56.5318 12.724 56.9518 12.544 57.3357 12.4C57.7197 12.256 58.0197 12.184 58.2358 12.184C58.4038 12.184 58.5477 12.22 58.6677 12.292C58.8118 12.364 58.8838 12.496 58.8838 12.688C58.8838 12.832 58.7158 13.036 58.3798 13.3C58.0438 13.564 57.6238 13.852 57.1198 14.164C56.6158 14.476 56.0638 14.812 55.4638 15.172C54.8878 15.508 54.3478 15.832 53.8438 16.144C53.3398 16.432 52.9198 16.708 52.5837 16.972C52.2477 17.212 52.0797 17.392 52.0797 17.512C52.0797 17.632 52.1158 18.016 52.1878 18.664C52.2837 19.288 52.4038 19.984 52.5478 20.752C52.7158 21.52 52.8958 22.264 53.0878 22.984C53.3038 23.704 53.5318 24.208 53.7718 24.496C53.8198 24.544 53.8438 24.616 53.8438 24.712C53.8438 24.856 53.7478 25.012 53.5558 25.18C53.3638 25.372 53.1958 25.468 53.0518 25.468C52.8598 25.468 52.6558 25.288 52.4398 24.928C52.2478 24.568 52.0678 24.112 51.8998 23.56C51.7318 23.008 51.5638 22.42 51.3958 21.796C51.2518 21.172 51.1198 20.584 50.9998 20.032C50.9038 19.48 50.8198 19.024 50.7477 18.664C50.6757 18.304 50.6277 18.124 50.6037 18.124C50.5317 18.124 50.3637 18.172 50.0997 18.268C49.8357 18.34 49.5597 18.376 49.2717 18.376C49.0557 18.376 48.8637 18.292 48.6957 18.124C48.5517 17.932 48.4797 17.74 48.4797 17.548C48.4797 17.356 48.5397 17.188 48.6597 17.044C48.7797 16.9 48.9237 16.768 49.0917 16.648C49.2597 16.528 49.4398 16.42 49.6318 16.324C49.8237 16.228 49.9917 16.132 50.1358 16.036L49.1277 9.16C49.1277 8.968 49.1637 8.776 49.2357 8.584C49.3078 8.368 49.4638 8.26 49.7037 8.26C49.7518 8.26 49.8238 8.32 49.9197 8.44C50.0157 8.536 50.0877 8.584 50.1358 8.584C50.2077 8.536 50.5197 8.296 51.0718 7.864C51.6238 7.408 52.2958 6.928 53.0878 6.424C53.9038 5.896 54.7678 5.428 55.6798 5.02C56.6158 4.588 57.4798 4.372 58.2718 4.372C58.5838 4.372 58.9198 4.504 59.2798 4.768C59.6398 5.032 59.8198 5.332 59.8198 5.668ZM71.2295 12.94C71.2295 13.276 71.1455 13.516 70.9775 13.66C70.8335 13.804 70.6655 13.876 70.4735 13.876C70.2575 13.876 70.0415 13.84 69.8255 13.768C69.6335 13.696 69.3815 13.6 69.0695 13.48L68.5295 13.264C68.4815 13.384 68.4455 13.54 68.4215 13.732C68.4215 13.9 68.4215 14.044 68.4215 14.164C68.4215 15.004 68.4575 15.916 68.5295 16.9C68.6015 17.884 68.6855 18.868 68.7815 19.852C68.8775 20.836 68.9855 21.796 69.1055 22.732C69.2495 23.668 69.3695 24.508 69.4655 25.252C69.5615 26.02 69.6455 26.656 69.7175 27.16C69.7895 27.688 69.8255 28.024 69.8255 28.168V29.068C69.8255 29.332 69.7895 29.572 69.7175 29.788C69.6695 30.004 69.5495 30.112 69.3575 30.112C68.9975 30.112 68.6855 29.812 68.4215 29.212C68.1815 28.636 67.9775 27.964 67.8095 27.196C67.6655 26.452 67.5575 25.72 67.4855 25C67.4135 24.304 67.3775 23.836 67.3775 23.596C67.3775 23.428 67.3415 23.02 67.2695 22.372C67.2215 21.724 67.1615 21.004 67.0895 20.212C67.0175 19.396 66.9455 18.58 66.8735 17.764C66.8255 16.924 66.8015 16.216 66.8015 15.64C66.8015 15.4 66.7895 15.136 66.7655 14.848C66.7655 14.536 66.7655 14.248 66.7655 13.984V12.868C66.7655 12.484 66.4895 12.088 65.9375 11.68C65.4095 11.272 64.7615 10.828 63.9935 10.348C63.2255 9.844 62.4335 9.28 61.6175 8.656C60.8015 8.008 60.1295 7.24 59.6015 6.352C59.5295 6.328 59.4935 6.22 59.4935 6.028C59.4935 5.692 59.5655 5.392 59.7095 5.128C59.8535 4.864 60.0455 4.732 60.2855 4.732C60.3575 4.732 60.4655 4.828 60.6095 5.02C60.7535 5.188 60.9335 5.404 61.1495 5.668C61.3655 5.932 61.6175 6.232 61.9055 6.568C62.1935 6.88 62.5175 7.18 62.8775 7.468C63.1175 7.684 63.4535 7.96 63.8855 8.296C64.3175 8.608 64.7375 8.92 65.1455 9.232C65.5775 9.544 65.9495 9.82 66.2615 10.06C66.5735 10.276 66.7415 10.384 66.7655 10.384C66.8615 10.384 66.9215 10.288 66.9455 10.096C66.9695 9.904 66.9815 9.784 66.9815 9.736L67.1615 7.576C67.2815 6.352 67.4255 5.248 67.5935 4.264C67.7855 3.256 67.8815 2.38 67.8815 1.636C67.8815 1.564 67.8575 1.42 67.8095 1.204C67.7615 0.987999 67.7375 0.843999 67.7375 0.771999C67.7375 0.627999 67.7855 0.519999 67.8815 0.447999C67.9775 0.351998 68.0855 0.279999 68.2055 0.231999C68.3495 0.159999 68.5175 0.111999 68.7095 0.0879989C69.0455 0.0879989 69.2855 0.219999 69.4295 0.483998C69.5735 0.723999 69.6455 0.951999 69.6455 1.168C69.6455 2.032 69.5855 2.872 69.4655 3.688C69.3695 4.504 69.2495 5.32 69.1055 6.136C68.9855 6.952 68.8655 7.792 68.7455 8.656C68.6495 9.496 68.6015 10.384 68.6015 11.32C68.6015 11.464 68.6855 11.62 68.8535 11.788C69.0215 11.932 69.2255 12.076 69.4655 12.22C69.7295 12.34 70.0175 12.472 70.3295 12.616C70.6415 12.736 70.9415 12.844 71.2295 12.94Z" fill="white"/>
</svg>
