<svg width="12" height="13" viewBox="0 0 12 13" fill="none" xmlns="http://www.w3.org/2000/svg">
<path d="M9.65736 9.18876C9.19398 9.18876 8.77938 9.38454 8.46233 9.69127L4.1151 6.98293C4.14559 6.83283 4.16998 6.68273 4.16998 6.5261C4.16998 6.36948 4.14559 6.21938 4.1151 6.06928L8.41356 3.38705C8.7428 3.71335 9.17569 3.91566 9.65736 3.91566C10.6695 3.91566 11.4865 3.04116 11.4865 1.95783C11.4865 0.874498 10.6695 0 9.65736 0C8.64525 0 7.82824 0.874498 7.82824 1.95783C7.82824 2.11446 7.85262 2.26456 7.88311 2.41466L3.58466 5.09689C3.25541 4.77058 2.82252 4.56827 2.34085 4.56827C1.32873 4.56827 0.511719 5.44277 0.511719 6.5261C0.511719 7.60944 1.32873 8.48394 2.34085 8.48394C2.82252 8.48394 3.25541 8.28163 3.58466 7.95532L7.92579 10.6702C7.8953 10.8072 7.87701 10.9508 7.87701 11.0944C7.87701 12.1451 8.67573 13 9.65736 13C10.639 13 11.4377 12.1451 11.4377 11.0944C11.4377 10.0437 10.639 9.18876 9.65736 9.18876Z" fill="#472F1A"/>
</svg>
