<svg width="28" height="28" viewBox="0 0 28 28" fill="none" xmlns="http://www.w3.org/2000/svg">
<path d="M19.9496 17.5833H18.7328L18.3016 17.1671C19.811 15.4096 20.7197 13.1279 20.7197 10.6458C20.7197 5.11125 16.2377 0.625 10.7085 0.625C5.17921 0.625 0.697266 5.11125 0.697266 10.6458C0.697266 16.1804 5.17921 20.6667 10.7085 20.6667C13.1882 20.6667 15.4676 19.7571 17.2235 18.2463L17.6393 18.6779V19.8958L25.3402 27.5887L27.6351 25.2917L19.9496 17.5833ZM10.7085 17.5833C6.87341 17.5833 3.77764 14.4846 3.77764 10.6458C3.77764 6.80708 6.87341 3.70833 10.7085 3.70833C14.5435 3.70833 17.6393 6.80708 17.6393 10.6458C17.6393 14.4846 14.5435 17.5833 10.7085 17.5833Z" fill="#AD8B7B"/>
</svg>
