<svg width="16" height="16" viewBox="0 0 16 16" fill="none" xmlns="http://www.w3.org/2000/svg">
<g clip-path="url(#clip0_56_308)">
<path d="M11.6574 12.1888C11.194 12.1888 10.7794 12.3845 10.4623 12.6913L6.1151 9.98293C6.14559 9.83283 6.16998 9.68273 6.16998 9.5261C6.16998 9.36948 6.14559 9.21938 6.1151 9.06928L10.4136 6.38705C10.7428 6.71335 11.1757 6.91566 11.6574 6.91566C12.6695 6.91566 13.4865 6.04116 13.4865 4.95783C13.4865 3.8745 12.6695 3 11.6574 3C10.6452 3 9.82824 3.8745 9.82824 4.95783C9.82824 5.11446 9.85262 5.26456 9.88311 5.41466L5.58466 8.09689C5.25541 7.77058 4.82252 7.56827 4.34085 7.56827C3.32873 7.56827 2.51172 8.44277 2.51172 9.5261C2.51172 10.6094 3.32873 11.4839 4.34085 11.4839C4.82252 11.4839 5.25541 11.2816 5.58466 10.9553L9.92579 13.6702C9.8953 13.8072 9.87701 13.9508 9.87701 14.0944C9.87701 15.1451 10.6757 16 11.6574 16C12.639 16 13.4377 15.1451 13.4377 14.0944C13.4377 13.0437 12.639 12.1888 11.6574 12.1888Z" fill="#472F1A"/>
</g>
<defs>
<clipPath id="clip0_56_308">
<rect width="14.9656" height="16" fill="white" transform="translate(0.515625)"/>
</clipPath>
</defs>
</svg>
