<?xml version="1.0" standalone="no"?>
  <!DOCTYPE svg PUBLIC "-//W3C//DTD SVG 1.1//EN" "http://www.w3.org/Graphics/SVG/1.1/DTD/svg11.dtd" >
  <svg>
  <metadata>
  Created by font-carrier
  </metadata>
  <defs>
  <font id="ReenieBeanie" horiz-adv-x="840" vert-adv-y="840" >
    <font-face
      
      font-family="Reenie Beanie"
      
      font-weight="400"
      
      font-stretch="normal"
      
      units-per-em="1000"
      
      ascent="750"
      
      descent="-250"
      
    />
      <missing-glyph />

      

      
      <glyph glyph-name="uni21" unicode="&#x21;" d="M150 483Q150 474 141 444Q132 414 121.50 377.50Q111 341 102.50 306Q94 271 94 251Q94 230 96 216.50Q98 203 100.50 194Q103 185 105 178.50Q107 172 107 163Q107 143 89 143Q86 143 83 147Q61 179 56.50 210Q52 241 52 258Q52 279 58 312.50Q64 346 73 383.50Q82 421 93.50 458.50Q105 496 116 524Q118 526 121 528Q124 530 129 530Q136 530 140 524.50Q144 519 146 511.50Q148 504 149 496Q150 488 150 483M183 34Q183 23 176.50 11.50Q170 0 160 0Q147 0 135.50 13Q124 26 124 43Q124 49 126.50 58.50Q129 68 139 68Q143 68 150 67Q157 66 164.50 62.50Q172 59 177.50 52Q183 45 183 34Z"  horiz-adv-x="227" vert-adv-y="1000"  />

      
      <glyph glyph-name="uni22" unicode="&#x22;" d="M203 328Q203 324 198 315.50Q193 307 188 307Q176 307 167.50 324.50Q159 342 153.50 364.50Q148 387 146 408Q144 429 144 436Q144 445 150.50 450Q157 455 176 455Q186 455 191.50 439.50Q197 424 199.50 403Q202 382 202.50 361Q203 340 203 328M106 319Q106 315 104.50 308Q103 301 100 294.50Q97 288 93 283Q89 278 85 278Q75 278 68 293Q61 308 57 329Q53 350 51 371.50Q49 393 49 405Q49 440 55.50 451.50Q62 463 77 463Q90 463 93 451.50Q96 440 96 431Q96 420 97.50 405.50Q99 391 101 375Q103 359 104.50 344Q106 329 106 319Z"  horiz-adv-x="233" vert-adv-y="1000"  />

      
      <glyph glyph-name="uni23" unicode="&#x23;" d="M593 552Q593 549 588 535Q583 521 576 504.50Q569 488 563 473Q557 458 555 452Q563 452 571.50 449Q580 446 580 440Q580 436 578.50 433.50Q577 431 569 429Q563 427 558 426Q553 425 549 422.50Q545 420 542.50 415.50Q540 411 537 402Q529 373 516.50 335.50Q504 298 491 258Q502 261 513 266Q524 271 538 271Q542 271 547.50 269Q553 267 553 259Q553 251 546.50 247Q540 243 530.50 240Q521 237 510 234.50Q499 232 489 226Q485 224 482.50 219.50Q480 215 478 210Q474 197 469 170.50Q464 144 456 117.50Q448 91 437 71Q426 51 410 51Q401 51 399 56.50Q397 62 397 67Q397 73 400.50 89Q404 105 408.50 126Q413 147 418.50 169Q424 191 428 209Q417 209 403.50 206Q390 203 376 199Q362 195 349 190.50Q336 186 326 182Q314 150 306.50 116Q299 82 279 52Q276 48 269 48Q263 48 258.50 55Q254 62 254 77Q254 86 257 99Q260 112 263.50 124.50Q267 137 270 146Q273 155 273 156Q273 161 267 161Q256 161 230 151Q204 141 171.50 129Q139 117 105 107Q71 97 44 97Q42 97 34.50 98Q27 99 19.50 101.50Q12 104 6 107Q0 110 0 115Q0 123 5 128.50Q10 134 18 134Q41 134 75 140.50Q109 147 145 157Q181 167 214.50 179Q248 191 271 203Q279 208 282.50 213Q286 218 289 228L333 372Q319 370 285 354.50Q251 339 212 318.50Q173 298 136.50 278Q100 258 81 246Q73 252 70 259.50Q67 267 67 274Q67 280 79 290Q91 300 110 311.50Q129 323 153 335Q177 347 199.50 358Q222 369 241.50 377Q261 385 272 389Q286 394 306.50 397Q327 400 344 408Q351 411 355 418.50Q359 426 362 435Q364 441 370.50 445Q377 449 382 449Q398 449 398 438Q398 426 415 426Q435 426 453 431Q471 436 478 438Q490 441 496 445Q502 449 507 457Q515 471 521.50 490Q528 509 535.50 526Q543 543 551.50 555Q560 567 572 567Q580 567 586.50 562.50Q593 558 593 552M491 410Q465 404 437.50 397.50Q410 391 385 384Q369 345 356 304.50Q343 264 335 222L439 246Q445 262 452 282.50Q459 303 466 325Q473 347 479.50 369Q486 391 491 410Z"  horiz-adv-x="635" vert-adv-y="1000"  />

      
      <glyph glyph-name="uni24" unicode="&#x24;" d="M383 582Q383 580 377.50 565.50Q372 551 363 530.50Q354 510 344.50 486.50Q335 463 326 442.50Q317 422 311.50 408.50Q306 395 306 394Q306 390 310.50 385Q315 380 320.50 374Q326 368 330.50 359.50Q335 351 335 340Q335 334 330.50 327Q326 320 317 316Q315 321 305 331.50Q295 342 289 346Q284 338 273 312.50Q262 287 250.50 258.50Q239 230 229.50 207Q220 184 219 181Q230 170 241.50 159Q253 148 262 136Q271 124 277 110Q283 96 283 77Q283 45 255.50 27Q228 9 194 9Q190 9 182 11Q174 13 166.50 15Q159 17 153 19Q147 21 147 21Q140 21 131 1Q122-19 112-43.50Q102-68 91.50-88Q81-108 71-108Q63-108 59-97.50Q55-87 55-86Q55-72 62-53.50Q69-35 78-17.50Q87 0 94 15Q101 30 101 36Q101 39 93 44.50Q85 50 75.50 57.50Q66 65 58 74.50Q50 84 50 95Q50 103 57 115Q64 127 75 127Q78 127 82 123Q86 119 86 116Q86 113 83.50 110Q81 107 81 104Q81 101 85.50 95.50Q90 90 96 85Q102 80 107.50 76Q113 72 116 72Q120 72 128 87Q136 102 144 119.50Q152 137 157.50 152Q163 167 163 167Q161 168 153.50 172.50Q146 177 137.50 182.50Q129 188 120.50 194Q112 200 108 204Q103 209 99.50 217.50Q96 226 93.50 234.50Q91 243 89.50 250.50Q88 258 88 262Q88 281 105 305.50Q122 330 147 351.50Q172 373 199.50 387.50Q227 402 247 402Q251 402 259 400Q271 425 284 460.50Q297 496 310.50 528Q324 560 337.50 583Q351 606 365 606Q383 606 383 582M242 351Q234 350 216.50 341.50Q199 333 181 320Q163 307 149.50 290Q136 273 136 255Q136 250 139.50 242Q143 234 148.50 226Q154 218 161 212Q168 206 176 206Q179 206 189.50 228Q200 250 211.50 277Q223 304 232.50 327Q242 350 242 351M231 78Q233 84 233 88Q233 97 228.50 107Q224 117 219 125Q214 133 209.50 138.50Q205 144 204 144Q192 124 181.50 102.50Q171 81 160 59Q165 56 173.50 54Q182 52 186 52Q201 52 214 59.50Q227 67 231 78Z"  horiz-adv-x="368" vert-adv-y="1000"  />

      
      <glyph glyph-name="uni25" unicode="&#x25;" d="M574 200Q574 185 567.50 158Q561 131 548.50 104.50Q536 78 516.50 58.50Q497 39 471 39Q459 39 445.50 41.50Q432 44 420.50 50Q409 56 402 66.50Q395 77 395 93Q395 102 400 115Q405 128 413 139.50Q421 151 431.50 159Q442 167 453 167Q459 167 467 161.50Q475 156 475 150Q475 143 470.50 136Q466 129 461 122Q456 115 451.50 108Q447 101 447 93Q447 88 450.50 85Q454 82 456 82Q471 82 484 94Q497 106 507.50 122Q518 138 524 154.50Q530 171 530 180Q530 185 524 185Q521 185 513.50 181Q506 177 499 177Q490 177 485 185Q480 193 480 196Q480 200 484 206Q488 212 494 218Q500 224 506 228Q512 232 517 232Q523 232 533 231Q543 230 552 226.50Q561 223 567.50 216.50Q574 210 574 200M569 631Q537 579 499 524Q461 469 430 412Q425 403 410 375Q395 347 376.50 310.50Q358 274 337.50 234Q317 194 299.50 159.50Q282 125 271 101.50Q260 78 260 75L234 21Q224 1 216.50-17Q209-35 209-36Q202-53 197-67Q192-79 188.50-91Q185-103 185-108Q185-111 188.50-120.50Q192-130 192-133Q192-144 182-153.50Q172-163 167-163Q148-163 140.50-149Q133-135 133-121Q133-100 149.50-56Q166-12 191 43Q216 98 246 157.50Q276 217 303.50 270.50Q331 324 352 364.50Q373 405 380 421Q380 422 368 418.50Q356 415 339.50 410.50Q323 406 305.50 402Q288 398 278 398Q261 398 247 401.50Q233 405 220 409.50Q207 414 194 417.50Q181 421 168 422Q166 422 160.50 415Q155 408 147 399.50Q139 391 128 384Q117 377 104 377Q78 377 66.50 389Q55 401 55 415Q55 431 63.50 449.50Q72 468 85.50 483.50Q99 499 115.50 509Q132 519 149 519Q158 519 171.50 511Q185 503 185 495Q185 494 180.50 487Q176 480 170 478Q171 478 182.50 472.50Q194 467 210.50 460.50Q227 454 244.50 448.50Q262 443 276 443Q320 443 353 459Q386 475 411 499.50Q436 524 454 552.50Q472 581 486 605.50Q500 630 511.50 646Q523 662 535 662Q546 662 557.50 654Q569 646 569 631M138 469Q127 469 114.50 458Q102 447 102 430Q102 426 106 426Q109 426 114.50 432.50Q120 439 125.50 447Q131 455 134.50 462Q138 469 138 469Z"  horiz-adv-x="626" vert-adv-y="1000"  />

      
      <glyph glyph-name="uni26" unicode="&#x26;" d="M277 599Q277 595 272 576.50Q267 558 260 534Q253 510 244.50 484.50Q236 459 230 442Q228 437 226 431Q224 425 216 425Q210 425 206 429.50Q202 434 200 440.50Q198 447 197.50 453.50Q197 460 197 464Q197 471 203 495Q209 519 218 545Q227 571 238 591.50Q249 612 260 612Q267 612 272 608Q277 604 277 599M283 180Q283 162 266 157Q254 154 235 145.50Q216 137 195.50 128.50Q175 120 156 113.50Q137 107 124 107Q102 107 88 114Q74 121 74 134Q74 151 80 162.50Q86 174 93 183Q93 184 86 186Q79 188 71 192Q63 196 56 201Q49 206 49 213Q49 231 68.50 254Q88 277 112.50 298Q137 319 159.50 334Q182 349 187 351Q195 355 207 359.50Q219 364 224 364Q237 364 237 350Q237 342 235 333.50Q233 325 225 325Q219 325 216 326.50Q213 328 211 328Q205 328 195.50 323.50Q186 319 179 314Q170 307 158 296.50Q146 286 134 275Q122 264 112 252.50Q102 241 96 231Q98 230 103.50 228.50Q109 227 112 227Q116 227 122 231Q128 235 134.50 239.50Q141 244 148.50 248Q156 252 162 252Q173 252 178 245.50Q183 239 183 236Q183 219 168 204Q153 189 139 181Q136 173 136 170Q136 161 146 161Q153 161 167.50 167.50Q182 174 199.50 181.50Q217 189 233.50 195.50Q250 202 262 202Q272 202 277.50 194Q283 186 283 180M153-71Q153-89 148-118Q143-147 138-174Q132-206 124-240Q122-245 114.50-249.50Q107-254 97-254Q91-254 88-250Q85-246 83.50-240.50Q82-235 82-230Q82-225 82-223Q82-207 85.50-187.50Q89-168 94-146.50Q99-125 104-103Q109-81 112-59Q113-48 117.50-33Q122-18 135-18Q148-18 150.50-33.50Q153-49 153-71Z"  horiz-adv-x="327" vert-adv-y="1000"  />

      
      <glyph glyph-name="uni27" unicode="&#x27;" d="M132 554Q132 541 126.50 524.50Q121 508 114 488.50Q107 469 101.50 447.50Q96 426 96 402Q96 368 92 357.50Q88 347 84 347Q73 347 67 354Q61 361 58 371Q55 381 54 391.50Q53 402 53 409Q53 411 55.50 423.50Q58 436 62 454Q66 472 72 492.50Q78 513 85 530.50Q92 548 100.50 559.50Q109 571 119 571Q125 571 128.50 563.50Q132 556 132 554Z"  horiz-adv-x="183" vert-adv-y="1000"  />

      
      <glyph glyph-name="uni28" unicode="&#x28;" d="M177 479Q180 479 192 477Q204 475 204 470Q204 468 199 463Q194 458 192 456Q172 436 153.50 403.50Q135 371 121 335.50Q107 300 98.50 265.50Q90 231 90 206Q90 180 95.50 153Q101 126 110.50 104Q120 82 132.50 68Q145 54 159 54Q162 54 166 57.50Q170 61 174 62Q179 62 181.50 55Q184 48 184 41Q184 36 178 32Q172 28 164.50 25Q157 22 149.50 20.50Q142 19 140 19Q126 19 111 30.50Q96 42 83 64.50Q70 87 61.50 120.50Q53 154 53 198Q53 250 66.50 300.50Q80 351 99.50 390.50Q119 430 140 454.50Q161 479 177 479Z"  horiz-adv-x="238" vert-adv-y="1000"  />

      
      <glyph glyph-name="uni29" unicode="&#x29;" d="M237 230Q237 179 218.50 138Q200 97 173.50 68.50Q147 40 117 25Q87 10 64 10Q56 10 49 12Q42 14 42 24Q42 27 43.50 32.50Q45 38 48 42Q51 40 58 40Q72 40 94 54.50Q116 69 136.50 96.50Q157 124 172 165Q187 206 187 259Q187 279 182 302.50Q177 326 170 348Q163 370 155.50 387Q148 404 142 411Q139 414 139 418Q139 423 146 430.50Q153 438 161 438Q168 438 181 425.50Q194 413 206.50 387.50Q219 362 228 323Q237 284 237 230Z"  horiz-adv-x="286" vert-adv-y="1000"  />

      
      <glyph glyph-name="uni2a" unicode="&#x2a;" d="M328 444Q328 439 316 427.50Q304 416 289 403Q274 390 260.50 378.50Q247 367 244 363Q250 362 259 361.50Q268 361 276.50 359.50Q285 358 290.50 354.50Q296 351 296 344Q296 339 286.50 335.50Q277 332 274 332Q260 332 250 331.50Q240 331 231 329.50Q222 328 213 325.50Q204 323 193 320L193 311Q193 302 204.50 292.50Q216 283 230.50 273.50Q245 264 256.50 254.50Q268 245 268 236Q268 233 265 229Q262 225 258 225Q251 225 236 232Q221 239 205 249Q189 259 175.50 269Q162 279 158 285Q139 274 126.50 252.50Q114 231 100 212Q88 212 80.50 216Q73 220 73 231Q73 251 90 271Q107 291 121 309Q111 309 95 311Q79 313 71 314Q60 315 46.50 325Q33 335 33 347Q33 352 39.50 355Q46 358 53 358Q61 358 75.50 354Q90 350 113 350Q120 350 122 353Q118 360 113.50 375.50Q109 391 109 412Q109 424 118.50 428.50Q128 433 132 433Q141 433 146.50 423.50Q152 414 156 401.50Q160 389 164.50 376.50Q169 364 175 358Q177 360 195 376.50Q213 393 235.50 412Q258 431 278 446.50Q298 462 303 462Q310 462 319 454.50Q328 447 328 444Z"  horiz-adv-x="341" vert-adv-y="1000"  />

      
      <glyph glyph-name="uni2b" unicode="&#x2b;" d="M302 253Q302 250 296.50 245.50Q291 241 283 237Q275 233 265.50 229.50Q256 226 248 225Q231 221 213 220Q195 219 179 216Q187 178 187 141Q187 103 177.50 81Q168 59 154 59Q148 59 143.50 66.50Q139 74 139 86Q139 89 141.50 98.50Q144 108 144 117Q144 119 143 130.50Q142 142 140.50 156.50Q139 171 137.50 185.50Q136 200 135 207Q125 207 110 205.50Q95 204 92 204Q78 204 67.50 208Q57 212 57 228Q57 237 65 240Q68 237 72 237Q73 237 81.50 238.50Q90 240 99.50 242Q109 244 116.50 246.50Q124 249 124 251Q124 253 120.50 271Q117 289 112.50 310.50Q108 332 104.50 353Q101 374 101 382Q101 383 101.50 388Q102 393 103.50 398Q105 403 108 407Q111 411 117 411Q136 411 139 399Q147 365 151.50 337.50Q156 310 159.50 290.50Q163 271 166.50 260.50Q170 250 178 250Q202 253 223 256Q240 258 257 260Q274 262 279 262Q281 262 291.50 260Q302 258 302 253Z"  horiz-adv-x="322" vert-adv-y="1000"  />

      
      <glyph glyph-name="uni2c" unicode="&#x2c;" d="M132 32Q132 21 123.50 0Q115-21 102-42Q89-63 72.50-78.50Q56-94 41-94Q33-94 27.50-87.50Q22-81 22-78Q22-77 31.50-65.50Q41-54 53-38Q65-22 74.50-3Q84 16 84 34Q84 53 79.50 62.50Q75 72 70 78.50Q65 85 60.50 90.50Q56 96 56 107Q56 122 72 122Q88 122 99 111.50Q110 101 117.50 86.50Q125 72 128.50 57Q132 42 132 32Z"  horiz-adv-x="178" vert-adv-y="1000"  />

      
      <glyph glyph-name="uni2d" unicode="&#x2d;" d="M211 224Q211 214 194.50 204.50Q178 195 157 188Q136 181 117 176.50Q98 172 93 172Q75 172 68.50 174Q62 176 57 187Q54 191 51 196.50Q48 202 48 205Q48 209 49.50 210Q51 211 57 211Q68 211 89.50 216Q111 221 132.50 227Q154 233 172 238Q190 243 194 243Q199 243 205 235.50Q211 228 211 224Z"  horiz-adv-x="256" vert-adv-y="1000"  />

      
      <glyph glyph-name="uni2e" unicode="&#x2e;" d="M104 64Q104 58 98 52.50Q92 47 84.50 42.50Q77 38 70 35.50Q63 33 62 33Q53 33 48.50 37.50Q44 42 41.50 47.50Q39 53 38.50 58Q38 63 38 65Q38 69 40 75.50Q42 82 46 88Q50 94 55.50 98.50Q61 103 68 103Q81 103 92.50 92Q104 81 104 64Z"  horiz-adv-x="139" vert-adv-y="1000"  />

      
      <glyph glyph-name="uni2f" unicode="&#x2f;" d="M250 483Q256 481 256 471Q256 469 255.50 467.50Q255 466 255 465L255 463Q232 406 211.50 336Q191 266 167 195Q143 124 114.50 57Q86-10 48-60Q40-71 38-71Q35-71 31.50-60.50Q28-50 28-48Q28-46 56 25Q69 58 84.50 101Q100 144 116.50 191Q133 238 148.50 284.50Q164 331 178 371Q186 395 195 416.50Q204 438 212 454Q220 470 226.50 479Q233 488 237 488Q239 488 242.50 486.50Q246 485 250 483Z"  horiz-adv-x="307" vert-adv-y="1000"  />

      
      <glyph glyph-name="uni30" unicode="&#x30;" d="M326 238Q326 196 315.50 165.50Q305 135 289.50 113.50Q274 92 254.50 78.50Q235 65 217 57.50Q199 50 184.50 47Q170 44 164 44Q141 44 120 54.50Q99 65 83 83Q67 101 57.50 125.50Q48 150 48 178Q48 202 54 225.50Q60 249 66.50 269.50Q73 290 79 306Q85 322 85 332Q85 334 84.50 337Q84 340 84 343Q84 349 88 352Q96 358 100.50 361Q105 364 111 364Q118 364 131 360.50Q144 357 149 357Q154 357 160.50 357Q167 357 174 358Q182 359 190 360Q203 360 226 355.50Q249 351 271.50 338Q294 325 310 301Q326 277 326 238M169 91Q196 91 217 102.50Q238 114 252.50 134Q267 154 274 180.50Q281 207 281 236Q281 258 273 274Q265 290 252.50 300Q240 310 224 314.50Q208 319 193 319Q173 319 158 316Q143 313 126 313Q123 304 118 289Q113 274 108 257.50Q103 241 99.50 225.50Q96 210 96 198Q96 183 98.50 164Q101 145 109 129Q117 113 131.50 102Q146 91 169 91Z"  horiz-adv-x="357" vert-adv-y="1000"  />

      
      <glyph glyph-name="uni31" unicode="&#x31;" d="M228 34Q228 24 215.50 18Q203 12 197 12Q193 12 185.50 15.50Q178 19 176 24Q165 63 158.50 96Q152 129 147.50 160Q143 191 139.50 223Q136 255 131 293Q123 290 110 281.50Q97 273 84 264.50Q71 256 61.50 249Q52 242 50 242Q47 242 44.50 250Q42 258 42 261Q42 263 43.50 267.50Q45 272 47 275Q49 278 63.50 290.50Q78 303 94.50 318.50Q111 334 124 349.50Q137 365 137 374Q137 382 143 384Q149 386 151 386Q159 386 164 380Q169 374 172 365Q175 356 176.50 346.50Q178 337 178 331Q178 279 182.50 243.50Q187 208 193 176Q197 141 203 116.50Q209 92 214.50 75.50Q220 59 224 49Q228 39 228 34Z"  horiz-adv-x="289" vert-adv-y="1000"  />

      
      <glyph glyph-name="uni32" unicode="&#x32;" d="M311 68Q311 57 301.50 51Q292 45 286 45Q277 45 272.50 48Q268 51 262.50 55Q257 59 248.50 62Q240 65 224 65Q204 65 188.50 55Q173 45 159.50 33.50Q146 22 133 12Q120 2 106 2Q89 2 84 14Q79 26 79 45Q79 49 92 74.50Q105 100 122.50 131Q140 162 156 190.50Q172 219 178 230Q184 241 195 261Q206 281 217.50 301.50Q229 322 237 337.50Q245 353 245 356Q245 363 242 365Q239 367 236 367Q229 367 205.50 359Q182 351 155.50 342Q129 333 105.50 325Q82 317 76 317Q75 317 70 322Q68 325 66.50 328Q65 331 65 334Q65 338 88.50 351Q112 364 145 377.50Q178 391 212.50 401.50Q247 412 269 412Q282 412 292 404Q302 396 302 382Q302 367 291 341Q280 315 263 284Q246 253 226.50 220Q207 187 190 159.50Q173 132 161 112.50Q149 93 148 88Q155 92 166 95.50Q177 99 188.50 102Q200 105 210.50 107Q221 109 227 109Q235 109 249 107Q263 105 277 100.50Q291 96 301 88Q311 80 311 68Z"  horiz-adv-x="367" vert-adv-y="1000"  />

      
      <glyph glyph-name="uni33" unicode="&#x33;" d="M317 340Q317 323 299.50 307Q282 291 261 277.50Q240 264 221.50 255.50Q203 247 200 246Q188 241 188 235Q188 231 196.50 230.50Q205 230 226 222Q238 218 252 211.50Q266 205 278 194.50Q290 184 298 168.50Q306 153 306 131Q306 108 289 87Q272 66 247.50 50Q223 34 194.50 24.50Q166 15 143 15Q129 15 114.50 17.50Q100 20 87.50 25Q75 30 67 38Q59 46 59 58Q59 64 63.50 73.50Q68 83 73 88Q85 77 100.50 71Q116 65 140 65Q156 65 176.50 71.50Q197 78 215 88.50Q233 99 245 112.50Q257 126 257 141Q257 162 236 171Q215 180 190 186.50Q165 193 144 201.50Q123 210 123 231Q123 245 143.50 259Q164 273 189 286Q214 299 234.50 310.50Q255 322 255 332Q255 339 242 339Q226 339 207 334Q188 329 170.50 323Q153 317 138.50 312Q124 307 117 307Q103 307 98.50 312Q94 317 94 329Q94 336 104 342.50Q114 349 129.50 355Q145 361 163.50 365.50Q182 370 199 373.50Q216 377 229.50 379Q243 381 248 381Q255 381 266.50 379.50Q278 378 289 373.50Q300 369 308.50 361Q317 353 317 340Z"  horiz-adv-x="367" vert-adv-y="1000"  />

      
      <glyph glyph-name="uni34" unicode="&#x34;" d="M349 194Q349 189 343.50 182Q338 175 332 173Q319 167 304 167Q289 167 276 165.50Q263 164 254.50 158.50Q246 153 246 137Q246 132 248 113.50Q250 95 252.50 70.50Q255 46 257 18Q259-10 259-33Q259-39 258-46.50Q257-54 254-61Q251-68 246-73Q241-78 232-78Q224-78 219.50-69.50Q215-61 212.50-51Q210-41 209.50-32Q209-23 209-22Q209-21 208.50-3Q208 15 207.50 40.50Q207 66 206.50 94.50Q206 123 205 145Q205 155 200 155Q197 155 185.50 153.50Q174 152 163 152Q158 152 140.50 153Q123 154 103 159.50Q83 165 67.50 175.50Q52 186 52 206Q52 220 63 236Q74 252 91 269Q108 286 127 302.50Q146 319 163 334Q180 349 191 361Q202 373 202 381L202 416Q202 421 206.50 423Q211 425 214 425Q223 425 228.50 417.50Q234 410 237 399.50Q240 389 241 379Q242 369 242 364Q242 337 242.50 319.50Q243 302 244 287.50Q245 273 245.50 257.50Q246 242 246 218Q246 208 254 208Q257 208 266.50 210.50Q276 213 287.50 215.50Q299 218 309 220.50Q319 223 323 223Q334 223 341.50 215Q349 207 349 194M204 258Q204 274 203.50 290Q203 306 199 314Q173 288 153 267Q136 249 121.50 231.50Q107 214 107 209Q120 204 137 203Q154 202 167 202Q175 202 185.50 202.50Q196 203 204 205L204 258Z"  horiz-adv-x="396" vert-adv-y="1000"  />

      
      <glyph glyph-name="uni35" unicode="&#x35;" d="M401 353Q401 349 378 341Q330 326 291 315Q252 304 214 287Q179 271 162 259Q145 247 142 247Q140 247 138 248.50Q136 250 135 250Q130 245 119 234.50Q108 224 103 216Q105 214 109 213Q113 212 118 211Q123 210 129 210Q139 210 163 206Q187 202 212 192Q237 182 256.50 163.50Q276 145 276 117Q276 100 259.50 87Q243 74 222.50 65Q202 56 182.50 51.50Q163 47 157 47Q138 47 123 62.50Q108 78 108 97Q108 101 114 101Q121 101 129.50 98.50Q138 96 146 96Q148 96 160 98.50Q172 101 185.50 106.50Q199 112 209.50 119Q220 126 220 135Q220 141 210.50 146Q201 151 189 155Q177 159 165.50 161Q154 163 149 163Q143 163 137 162Q131 161 117 161Q108 161 96 162.50Q84 164 72.50 168.50Q61 173 53 182.50Q45 192 45 207Q45 214 57 231.50Q69 249 85.50 266.50Q102 284 119 297.50Q136 311 147 311Q150 311 151 308.50Q152 306 155 306Q170 313 195.50 323Q221 333 249 342Q277 351 304 357.50Q331 364 348 364Q369 364 385 361.50Q401 359 401 353Z"  horiz-adv-x="353" vert-adv-y="1000"  />

      
      <glyph glyph-name="uni36" unicode="&#x36;" d="M244 141Q244 121 234.50 98.50Q225 76 211 56Q197 36 181 23Q165 10 152 10Q138 10 121 20Q104 30 96 45Q94 50 92 50Q88 50 84.50 45.50Q81 41 77 41Q75 41 71.50 47.50Q68 54 65 62.50Q62 71 59.50 79Q57 87 57 91Q57 94 59.50 103.50Q62 113 62 116L62 166Q62 204 70.50 251.50Q79 299 94.50 341Q110 383 131 411.50Q152 440 178 440Q195 440 203 432.50Q211 425 211 419Q211 413 206 410Q201 407 196 403Q175 386 158.50 360Q142 334 130.50 304Q119 274 112.50 242.50Q106 211 106 183Q111 188 119.50 194.50Q128 201 138 207Q148 213 159 217.50Q170 222 179 222Q199 222 211.50 214.50Q224 207 231.50 195.50Q239 184 241.50 169.50Q244 155 244 141M202 147Q202 175 182 175Q171 175 158.50 166.50Q146 158 135 146.50Q124 135 117 123Q110 111 110 105Q110 100 114 92.50Q118 85 123 78Q128 71 134 65.50Q140 60 145 60Q155 60 165 70Q175 80 183.50 93.50Q192 107 197 122Q202 137 202 147Z"  horiz-adv-x="304" vert-adv-y="1000"  />

      
      <glyph glyph-name="uni37" unicode="&#x37;" d="M329 322Q329 313 321 301Q313 289 302.50 271Q292 253 280 226.50Q268 200 260 161Q255 137 253.50 107Q252 77 242 54Q237 43 228.50 33Q220 23 208 23Q200 23 197.50 35Q195 47 195 55Q195 68 201 100.50Q207 133 216 170.50Q225 208 236 243.50Q247 279 257 297Q255 299 252 300.50Q249 302 239 302Q239 302 222.50 300.50Q206 299 184.50 297.50Q163 296 141 294.50Q119 293 107 293Q88 293 72 294Q56 295 44 299Q32 303 25 311Q18 319 18 333Q18 341 23.50 344Q29 347 34 347Q33 347 57.50 342.50Q82 338 114 338Q170 338 217.50 344.50Q265 351 285 359Q291 361 292 361Q295 361 300 357Q311 351 320 343.50Q329 336 329 322Z"  horiz-adv-x="390" vert-adv-y="1000"  />

      
      <glyph glyph-name="uni38" unicode="&#x38;" d="M413 364Q413 351 398.50 334Q384 317 361.50 299.50Q339 282 312.50 265Q286 248 262.50 233.50Q239 219 222 209.50Q205 200 201 197Q208 188 215.50 171.50Q223 155 229.50 136Q236 117 240.50 99Q245 81 245 68Q245 52 238.50 38.50Q232 25 221 15.50Q210 6 196.50 0.50Q183-5 170-5Q149-5 129 0Q109 5 94 15Q79 25 69.50 40.50Q60 56 60 77Q60 105 73.50 127.50Q87 150 103 166.50Q119 183 132.50 192.50Q146 202 146 205Q146 208 135.50 223Q125 238 112 259Q99 280 88.50 303.50Q78 327 78 346Q78 365 87.50 380Q97 395 112.50 405Q128 415 148 420Q168 425 189 425Q210 425 231 422.50Q252 420 268 413.50Q284 407 294 395.50Q304 384 304 365Q304 363 300.50 356.50Q297 350 291.50 342.50Q286 335 280.50 329Q275 323 271 323Q265 323 265 333Q265 336 266.50 340.50Q268 345 268 348Q268 366 248.50 373.50Q229 381 202 381Q193 381 180 379Q167 377 154 371.50Q141 366 132 356.50Q123 347 123 333Q123 328 131 313Q139 298 149 281Q159 264 168.50 249.50Q178 235 181 231Q202 242 228 258.50Q254 275 286 291Q308 302 329 316.50Q350 331 366.50 343.50Q383 356 394 365Q405 374 407 374Q410 374 411.50 370Q413 366 413 364M200 79Q200 82 197.50 96Q195 110 190.50 125.50Q186 141 179.50 153.50Q173 166 165 166Q161 166 150.50 157.50Q140 149 129.50 137Q119 125 110.50 111.50Q102 98 102 89Q102 72 116 56Q130 40 156 40Q173 40 186.50 51Q200 62 200 79Z"  horiz-adv-x="416" vert-adv-y="1000"  />

      
      <glyph glyph-name="uni39" unicode="&#x39;" d="M346 339Q346 328 337.50 306.50Q329 285 317.50 249.50Q306 214 294 162.50Q282 111 276 41Q275 28 274.50 20Q274 12 273.50 6Q273 0 273-5.50Q273-11 273-18Q273-25 274.50-28.50Q276-32 276-37Q276-60 252-60Q241-60 231.50-49Q222-38 223-25Q224-12 227.50 23Q231 58 236.50 100Q242 142 249 183Q256 224 264 249Q253 243 239 237Q225 231 209 226.50Q193 222 178 219Q163 216 151 216Q109 216 81 245Q53 274 53 318Q53 344 64.50 364Q76 384 93.50 397.50Q111 411 131 418Q151 425 168 425Q209 425 234.50 411Q260 397 277 349Q278 347 278.50 343.50Q279 340 279 339Q279 335 277.50 331.50Q276 328 276 324Q276 323 278 317Q289 323 296.50 339Q304 355 315 368Q317 368 322 365Q327 362 332.50 357.50Q338 353 342 348Q346 343 346 339M253 298Q253 307 249.50 320.50Q246 334 237.50 346.50Q229 359 215 367.50Q201 376 180 376Q165 376 150 371Q135 366 123 358Q111 350 103.50 338.50Q96 327 96 314Q96 285 114 275.50Q132 266 158 266Q171 266 187.50 269Q204 272 218.50 276.50Q233 281 243 286.50Q253 292 253 298Z"  horiz-adv-x="400" vert-adv-y="1000"  />

      
      <glyph glyph-name="uni3a" unicode="&#x3a;" d="M112 155Q117 155 122.50 149Q128 143 132 135Q136 127 138.50 117.50Q141 108 141 102Q141 91 130.50 83Q120 75 94 75Q86 75 77.50 80Q69 85 69 95Q69 98 73.50 107.50Q78 117 84.50 127.50Q91 138 98.50 146.50Q106 155 112 155M126 279Q126 273 120 267.50Q114 262 106.50 257.50Q99 253 92 250.50Q85 248 84 248Q75 248 70.50 252.50Q66 257 63.50 262.50Q61 268 60.50 273Q60 278 60 280Q60 284 62 290.50Q64 297 68 303Q72 309 77.50 313.50Q83 318 90 318Q103 318 114.50 307Q126 296 126 279Z"  horiz-adv-x="195" vert-adv-y="1000"  />

      
      <glyph glyph-name="uni3b" unicode="&#x3b;" d="M140 64Q140 42 134 17Q128-8 115-29.50Q102-51 81-65.50Q60-80 29-80Q19-80 11.50-74.50Q4-69 4-57Q4-46 11.50-41.50Q19-37 27-37Q31-37 30.50-38.50Q30-40 33-40Q60-40 70-18.50Q80 3 85 29Q90 55 95 76.50Q100 98 117 98Q131 98 135.50 84.50Q140 71 140 64M118 261Q118 255 112 249.50Q106 244 98.50 239.50Q91 235 84 232.50Q77 230 76 230Q67 230 62.50 234.50Q58 239 55.50 244.50Q53 250 52.50 255Q52 260 52 262Q52 266 54 272.50Q56 279 60 285Q64 291 69.50 295.50Q75 300 82 300Q95 300 106.50 289Q118 278 118 261Z"  horiz-adv-x="197" vert-adv-y="1000"  />

      
      <glyph glyph-name="uni3c" unicode="&#x3c;" d="M458 82Q458 77 451.50 70.50Q445 64 435 64Q432 64 425.50 63Q419 62 416 62Q372 62 322.50 71Q273 80 216 80Q214 80 211 80Q208 80 202 79.50Q196 79 185.50 79Q175 79 158 79Q152 79 134.50 81.50Q117 84 99 89.50Q81 95 66.50 104Q52 113 52 126Q52 135 60 146Q68 157 81.50 171.50Q95 186 111.50 202.50Q128 219 146 239Q153 246 169.50 268Q186 290 205 312.50Q224 335 242 353Q260 371 271 371Q276 371 280.50 366.50Q285 362 285 357Q285 350 281 346Q267 320 246 291Q225 262 202 233.50Q179 205 155.50 179.50Q132 154 113 135Q114 134 122 132Q130 130 139.50 128.50Q149 127 158 125.50Q167 124 170 124Q178 124 240.50 118Q303 112 415 104Q418 104 425 106.50Q432 109 435 109Q446 109 452 98.50Q458 88 458 82Z"  horiz-adv-x="467" vert-adv-y="1000"  />

      
      <glyph glyph-name="uni3d" unicode="&#x3d;" d="M345 282Q345 274 336 270Q327 266 322 266Q316 266 296 264Q276 262 249 258.50Q222 255 193 251Q164 247 139 243.50Q114 240 97.50 238Q81 236 80 236Q75 236 70.50 241Q66 246 66 252Q66 257 69 260.50Q72 264 74 266Q81 270 117 279.50Q153 289 234 295Q253 296 264.50 296.50Q276 297 285.50 297.50Q295 298 304.50 298Q314 298 329 300Q334 300 339.50 293Q345 286 345 282M319 185Q319 180 302 172.50Q285 165 258.50 157Q232 149 201.50 140.50Q171 132 144 125Q117 118 98 114Q79 110 76 110Q59 110 54 116.50Q49 123 49 138Q49 149 52 152.50Q55 156 59 156Q64 156 67.50 153Q71 150 75 150Q78 150 93.50 153.50Q109 157 130.50 162Q152 167 177 173.50Q202 180 224.50 185Q247 190 264 193.50Q281 197 287 197Q298 197 308.50 195Q319 193 319 185Z"  horiz-adv-x="388" vert-adv-y="1000"  />

      
      <glyph glyph-name="uni3e" unicode="&#x3e;" d="M407 151Q420 139 396 129Q372 119 311 108Q276 102 240 92.50Q204 83 171.50 74Q139 65 113 58.50Q87 52 74 52Q63 52 59 59Q55 66 55 71Q55 78 72 86.50Q89 95 115 103Q141 111 173.50 119Q206 127 237 133.50Q268 140 293.50 145Q319 150 333 152Q271 203 215 264Q159 325 103 376Q99 379 96 389Q93 399 93 403Q93 409 97.50 414Q102 419 110 421Q114 421 128.50 408.50Q143 396 161 378Q179 360 198 341Q217 322 231 309L407 151Z"  horiz-adv-x="462" vert-adv-y="1000"  />

      
      <glyph glyph-name="uni3f" unicode="&#x3f;" d="M352 432Q352 414 337 394.50Q322 375 300 354.50Q278 334 252 313Q226 292 204 271.50Q182 251 167 232Q152 213 152 197Q152 186 154.50 173.50Q157 161 162 153Q157 144 152 139Q147 134 139 134Q132 134 126.50 140Q121 146 117 155Q113 164 110.50 174Q108 184 108 192Q108 215 114 230.50Q120 246 132.50 259.50Q145 273 163 287Q181 301 205 319Q223 333 241.50 349Q260 365 274.50 380.50Q289 396 298.50 410.50Q308 425 308 437Q308 447 299.50 457Q291 467 277 474.50Q263 482 244 486.50Q225 491 204 491Q157 491 130.50 484Q104 477 88 477Q80 477 72 481.50Q64 486 64 495Q64 507 82 515Q100 523 123.50 527Q147 531 168.50 532.50Q190 534 197 534Q228 534 256 525Q284 516 305.50 502Q327 488 339.50 469.50Q352 451 352 432M221 6Q221-6 209-12.50Q197-19 187-19Q178-19 166-9.50Q154 0 154 9Q154 12 154.50 17.50Q155 23 157.50 29Q160 35 164 39.50Q168 44 175 44Q178 44 185.50 39.50Q193 35 201 29Q209 23 215 16.50Q221 10 221 6Z"  horiz-adv-x="392" vert-adv-y="1000"  />

      
      <glyph glyph-name="uni40" unicode="&#x40;" d="M498 249Q498 232 482.50 210.50Q467 189 446 169.50Q425 150 402 136.50Q379 123 364 123Q357 123 346.50 127Q336 131 325.50 137Q315 143 304.50 150.50Q294 158 287 164Q283 158 276.50 150Q270 142 262.50 134.50Q255 127 247 122Q239 117 232 117Q215 117 205.50 134Q196 151 196 165Q196 185 207 212.50Q218 240 233 265.50Q248 291 264.50 309Q281 327 292 327Q300 327 307 321.50Q314 316 314 309Q314 306 308.50 301.50Q303 297 300 294Q291 285 280 269.50Q269 254 259.50 237Q250 220 243 204Q236 188 236 179Q236 176 236.50 172Q237 168 239 166Q247 169 252.50 182.50Q258 196 263 211Q268 226 273.50 238Q279 250 286 250Q296 250 303 244Q310 238 314 229.50Q318 221 319.50 213Q321 205 321 201Q321 196 325.50 190Q330 184 336 178Q342 172 348.50 168Q355 164 359 164Q377 164 395 172.50Q413 181 429.50 194.50Q446 208 461 225.50Q476 243 488 260Q490 259 494 256Q498 253 498 249M484 439Q484 435 482 435Q480 435 478 437Q467 445 444 454.50Q421 464 386 464Q362 464 330 451Q298 438 263.50 414.50Q229 391 196 359.50Q163 328 136.50 290.50Q110 253 94 211.50Q78 170 78 127Q78 104 84 76.50Q90 49 104 25Q118 1 142.50-15Q167-31 205-31Q230-31 251-25.50Q272-20 287.50-14Q303-8 313-2.50Q323 3 327 3Q334 3 334-5Q334-19 321-30Q308-41 288.50-49Q269-57 246.50-61.50Q224-66 206-66Q177-66 148-55.50Q119-45 96-21.50Q73 2 58.50 38.50Q44 75 44 127Q44 180 61.50 228.50Q79 277 108 318.50Q137 360 173.50 393.50Q210 427 247.50 450.50Q285 474 320.50 487Q356 500 382 500Q400 500 418.50 497Q437 494 451.50 488Q466 482 475 474.50Q484 467 484 458L484 439Z"  horiz-adv-x="532" vert-adv-y="1000"  />

      
      <glyph glyph-name="uni41" unicode="&#x41;" d="M354-44Q355-48 355-51.50Q355-55 355-57Q355-67 350.50-71Q346-75 333-75Q321-75 317-71Q311-65 301-40Q291-15 280 19Q269 53 258.50 92Q248 131 240 166Q229 161 210 155.50Q191 150 171 145Q148 140 123 134Q114 91 109.50 60.50Q105 30 101.50 10.50Q98-9 92.50-18.50Q87-28 75-28Q67-28 61-19Q55-10 55 8Q55 17 60 50Q65 83 71 123.50Q77 164 83 204Q89 244 91 267Q92 279 97.50 306Q103 333 109 361.50Q115 390 121 413Q127 436 129 439Q145 476 149.50 515Q154 554 156.50 586.50Q159 619 165 639.50Q171 660 190 660Q195 660 200.50 652Q206 644 211 633Q216 622 219 611.50Q222 601 223 595Q224 589 225.50 571Q227 553 228.50 531.50Q230 510 231.50 489.50Q233 469 234 458Q237 425 243.50 384Q250 343 257 307Q264 271 270 246.50Q276 222 279 222Q283 222 289.50 224Q296 226 302 226Q310 226 310 218Q310 210 306 205Q302 200 297.50 196Q293 192 289.50 189Q286 186 286 182Q286 174 295 141L311 82Q313 74 320 55Q327 36 334.50 15.50Q342-5 348-22.50Q354-40 354-44M132 185Q138 185 154 188.50Q170 192 187 197Q204 202 217 207Q230 212 230 215Q230 218 226.50 230.50Q223 243 218.50 262.50Q214 282 209 307Q204 332 200 360Q198 378 195 409Q192 440 189 470.50Q186 501 184 523Q182 545 182 545Q182 545 179 530.50Q176 516 172.50 498.50Q169 481 166.50 465.50Q164 450 164 448L164 420Q164 418 161.50 402.50Q159 387 155 363.50Q151 340 146.50 312.50Q142 285 138 260Q134 235 131.50 215.50Q129 196 129 189Q129 185 132 185Z"  horiz-adv-x="406" vert-adv-y="1000"  />

      
      <glyph glyph-name="uni42" unicode="&#x42;" d="M516 301Q516 275 504 250Q492 225 474 203Q456 181 435 162.50Q414 144 397 131Q379 117 355 101Q331 85 308.50 71Q286 57 269 45.50Q252 34 248 30L219 7Q214 3 207.50 2Q201 1 197 1Q190 1 186 8.50Q182 16 182 24Q182 30 193.50 45.50Q205 61 220 72Q235 83 257 94Q279 105 317 129Q336 141 363 160.50Q390 180 414 202.50Q438 225 455 249.50Q472 274 472 297Q472 306 450.50 315.50Q429 325 390 325Q350 325 306 313Q262 301 224.50 287Q187 273 160 261Q133 249 127 249Q130 226 134.50 192.50Q139 159 144 128Q149 92 155 53L159 53Q161 43 167 24Q173 5 173-6Q173-22 161-22Q155-22 147.50-11Q140 0 132.50 15Q125 30 119.50 44.50Q114 59 112 65Q103 98 94.50 141Q86 184 79.50 227.50Q73 271 69.50 309.50Q66 348 66 373Q66 380 69.50 385Q73 390 73 395Q73 400 70.50 402.50Q68 405 68 411Q68 414 69.50 417.50Q71 421 78 421Q85 419 91.50 419Q98 419 103 416.50Q108 414 111 408Q114 402 114 389L114 383Q114 381 113.50 378.50Q113 376 113 374Q113 357 114 347Q115 337 117 337Q120 337 138.50 351.50Q157 366 183 388Q209 410 239.50 437Q270 464 298 489Q309 499 328 517.50Q347 536 365.50 557Q384 578 397.50 596.50Q411 615 411 625Q411 635 405 635Q397 635 371 628Q345 621 312 609.50Q279 598 244 583Q209 568 182 552Q154 533 126 510Q98 487 75.50 466.50Q53 446 38.50 431.50Q24 417 23 415Q21 413 21 411Q21 409 22.50 405.50Q24 402 24 400Q24 397 20 395Q16 393 11 393Q3 393-9 396.50Q-21 400-21 416Q-21 430-5 451Q11 472 36.50 496Q62 520 93 543.50Q124 567 154 587Q184 606 219.50 623.50Q255 641 289.50 654Q324 667 355 674.50Q386 682 406 682Q414 682 424 680Q434 678 443 674Q452 670 458 663.50Q464 657 464 648Q464 621 448 592.50Q432 564 406 535Q380 506 347.50 476.50Q315 447 282.50 419.50Q250 392 220 366.50Q190 341 170 320Q181 324 206 333.50Q231 343 260.50 352.50Q290 362 320 369Q350 376 373 376Q380 376 403 375Q426 374 451 367Q476 360 496 344.50Q516 329 516 301Z"  horiz-adv-x="565" vert-adv-y="1000"  />

      
      <glyph glyph-name="uni43" unicode="&#x43;" d="M477 229Q477 215 469.50 200Q462 185 451 170Q440 155 427 141.50Q414 128 403 118Q376 94 347.50 72.50Q319 51 288.50 34Q258 17 225 7Q192-3 156-3Q47-3 47 109Q47 120 56 152Q65 184 79 225Q93 266 112 311Q131 356 151 393.50Q171 431 190.50 455Q210 479 227 479Q238 479 243.50 472Q249 465 249 457Q248 451 235 431.50Q222 412 208 392Q206 389 201 382Q196 375 191 368Q185 360 179 351Q175 344 161.50 315.50Q148 287 133 249.50Q118 212 106 171.50Q94 131 94 101Q94 84 101.50 74Q109 64 119.50 59Q130 54 141.50 52.50Q153 51 162 51Q199 51 240.50 67.50Q282 84 320 111Q358 138 390 173.50Q422 209 440 247Q444 254 448.50 256Q453 258 457 258Q465 258 471 247Q477 236 477 229Z"  horiz-adv-x="522" vert-adv-y="1000"  />

      
      <glyph glyph-name="uni44" unicode="&#x44;" d="M404 300Q404 266 392 235Q380 204 358 175Q336 146 306.50 118.50Q277 91 242 65Q205 37 156 11Q107-15 57.50-35.50Q8-56-36-68Q-80-80-107-80Q-125-80-133.50-75.50Q-142-71-142-55Q-142-44-134-29Q-126-14-118-14Q-110-14-106.50-19Q-103-24-103-30Q-103-33-103.50-35Q-104-37-104-38L-104-40Q-66-36-2.50-16.50Q61 3 149 51Q187 72 224 100.50Q261 129 290.50 161.50Q320 194 338 229.50Q356 265 356 299Q356 323 331.50 348.50Q307 374 269.50 396.50Q232 419 188 435.50Q144 452 106 458Q107 453 109 433.50Q111 414 115 388Q119 362 124.50 332.50Q130 303 137 278Q145 250 147.50 236.50Q150 223 151 214Q152 204 154.50 188.50Q157 173 158.50 156.50Q160 140 161.50 125.50Q163 111 163 103Q163 94 159.50 84Q156 74 151 74Q139 74 134.50 82.50Q130 91 126.50 111.50Q123 132 118 165Q113 198 99 246Q79 313 71 372.50Q63 432 61 467Q61 467 56.50 467.50Q52 468 44.50 468Q37 468 27.50 468.50Q18 469 10 469Q-7 469-21 462.50Q-35 456-44.50 448Q-54 440-60.50 433.50Q-67 427-69 427Q-76 427-88.50 430.50Q-101 434-101 444Q-101 457-88.50 470.50Q-76 484-58 494.50Q-40 505-19 511.50Q2 518 20 518Q50 518 90 510Q130 502 172.50 488Q215 474 256.50 454Q298 434 331 410Q364 386 384 358Q404 330 404 300Z"  horiz-adv-x="448" vert-adv-y="1000"  />

      
      <glyph glyph-name="uni45" unicode="&#x45;" d="M331 353Q332 351 333 350.50Q334 350 334 348Q334 342 309 325.50Q284 309 247 288.50Q210 268 169 247.50Q128 227 96 214Q96 212 94 201Q92 190 92 187L92 168Q92 145 99 122.50Q106 100 120.50 82Q135 64 156 53Q177 42 205 42Q217 42 234.50 46.50Q252 51 268.50 59.50Q285 68 298 80Q311 92 314 107Q326 106 328.50 100Q331 94 331 92Q331 66 318.50 47.50Q306 29 287.50 17.50Q269 6 248.50 0.50Q228-5 212-5Q126-5 87 43Q48 91 48 169Q48 173 50 187Q52 201 52 206Q52 207 48 208.50Q44 210 39.50 212Q35 214 31.50 218.50Q28 223 28 231Q28 239 34 244Q40 249 48 253L58 259Q67 297 79.50 332.50Q92 368 111 404Q103 404 94 406Q85 408 85 420Q85 434 101.50 451Q118 468 139.50 483Q161 498 182 508.50Q203 519 212 519Q216 519 217.50 517.50Q219 516 223 516Q231 516 243.50 519Q256 522 270 526Q284 530 296.50 533Q309 536 317 536Q326 536 330.50 530Q335 524 335 517Q335 509 325 505.50Q315 502 307 500Q279 495 248.50 482.50Q218 470 192 455Q182 444 168 423.50Q154 403 141 377Q128 351 117.50 323Q107 295 104 270L121 278Q198 315 246.50 336Q295 357 322 357Q327 357 331 353Z"  horiz-adv-x="369" vert-adv-y="1000"  />

      
      <glyph glyph-name="uni46" unicode="&#x46;" d="M356 537Q356 533 353 531Q350 529 347 527Q343 525 338 524Q330 524 324 525Q318 526 310 526Q299 526 266.50 513.50Q234 501 199 482Q164 463 136.50 442Q109 421 108 405L120 337Q125 311 128.50 290Q132 269 133 269Q135 270 146.50 277.50Q158 285 175 294.50Q192 304 212.50 315Q233 326 252 335Q271 344 287 350Q303 356 312 356Q319 356 324.50 353Q330 350 330 342Q330 336 316 325Q302 314 281 301Q260 288 235.50 273.50Q211 259 190 246.50Q169 234 155 223.50Q141 213 141 208Q141 203 144.50 176.50Q148 150 154.50 118Q161 86 169.50 56Q178 26 188 14Q190 12 190 8Q190 2 182-5.50Q174-13 168-13Q160-13 151.50 2Q143 17 136 40Q129 63 122.50 89Q116 115 111.50 138Q107 161 104 176Q101 191 100 191Q97 191 86 187.50Q75 184 63 184Q54 184 47.50 191.50Q41 199 41 207Q41 215 46 221Q51 227 58 232Q65 237 73 241Q81 245 87 249L59 440Q59 448 62 456.50Q65 465 75 465Q77 465 81 460.50Q85 456 87 456Q90 458 113 476.50Q136 495 169.50 516.50Q203 538 241.50 555.50Q280 573 313 573Q326 573 341 562Q356 551 356 537Z"  horiz-adv-x="336" vert-adv-y="1000"  />

      
      <glyph glyph-name="uni47" unicode="&#x47;" d="M439 234Q439 214 436.50 196Q434 178 425.50 159.50Q417 141 402 120Q387 99 363 72Q334 40 295 15Q256-10 208-10Q178-10 148.50 0Q119 10 96.50 30Q74 50 60 80Q46 110 46 150Q46 214 70 284.50Q94 355 137 436Q165 489 189 529.50Q213 570 236 597.50Q259 625 282 639Q305 653 331 653Q351 653 365.50 645.50Q380 638 380 616Q380 609 377 603.50Q374 598 368 598Q360 598 356.50 602.50Q353 607 337 607Q310 607 284 582Q258 557 235.50 524.50Q213 492 196.50 460Q180 428 173 413Q161 388 146.50 354Q132 320 119 284Q106 248 97 214.50Q88 181 88 159Q88 131 97.50 109.50Q107 88 123 73Q139 58 160.50 50.50Q182 43 206 43Q239 43 273.50 59Q308 75 335.50 101Q363 127 380.50 161Q398 195 398 230Q398 265 380 288Q362 311 340 311Q326 311 320.50 306.50Q315 302 310 295Q303 284 297 277Q291 270 276 265Q252 257 238.50 253.50Q225 250 219 248L211 246Q205 246 194.50 254.50Q184 263 184 268Q184 286 205.50 302.50Q227 319 254 332.50Q281 346 306 354Q331 362 337 362Q367 362 386.50 350Q406 338 417.50 319Q429 300 434 277.50Q439 255 439 234Z"  horiz-adv-x="470" vert-adv-y="1000"  />

      
      <glyph glyph-name="uni48" unicode="&#x48;" d="M333 285Q333 280 328.50 277Q324 274 318.50 272Q313 270 307 267.50Q301 265 298 262L305 215Q311 176 315.50 139Q320 102 320 69Q320 43 314.50 22.50Q309 2 295 2Q288 2 282.50 19.50Q277 37 273.50 59.50Q270 82 268.50 104.50Q267 127 267 137Q267 144 266 159.50Q265 175 263 192.50Q261 210 259 225.50Q257 241 256 249Q239 248 210 244.50Q181 241 139 230L139 218Q139 196 141 169.50Q143 143 145.50 115.50Q148 88 150 60.50Q152 33 152 8Q152-2 150-8.50Q148-15 141-15Q129-15 122.50-3Q116 9 113 25.50Q110 42 108.50 60Q107 78 106 90Q102 116 99.50 150.50Q97 185 95 221Q91 221 85 223.50Q79 226 73 229.50Q67 233 63 237Q59 241 59 246Q59 258 70 265.50Q81 273 94 278Q93 287 93 297.50Q93 308 93 334Q93 345 93 366.50Q93 388 93 415.50Q93 443 93.50 476Q94 509 94 543Q95 551 99 562.50Q103 574 112 574Q119 574 124 568.50Q129 563 132 555Q135 547 136.50 538.50Q138 530 138 524L138 285Q147 285 162 286Q177 287 193 288.50Q209 290 224.50 292Q240 294 250 296L227 506Q226 513 225.50 521Q225 529 225 534Q225 554 230.50 566.50Q236 579 247 579Q261 579 264 566Q267 553 268 528Q269 512 270 496.50Q271 481 273 466L296 297Q308 297 320.50 295.50Q333 294 333 285Z"  horiz-adv-x="382" vert-adv-y="1000"  />

      
      <glyph glyph-name="uni49" unicode="&#x49;" d="M512 143Q512 124 489 115Q466 106 435.50 96.50Q405 87 377 79.50Q349 72 327.50 65.50Q306 59 301 56Q301 54 301 51Q301 48 302 45L305 21Q305 12 302.50 7Q300 2 292 2Q283 2 279.50 7.50Q276 13 273.50 20.50Q271 28 269.50 36Q268 44 264 48Q262 48 248 44Q234 40 212.50 34Q191 28 164.50 20.50Q138 13 113 7Q88 1 66-3Q44-7 32-7Q5-7 5 10Q5 23 12.50 29Q20 35 30 38Q32 39 49.50 43Q67 47 92 52.50Q117 58 145.50 65Q174 72 198.50 78Q223 84 238.50 89Q254 94 254 96Q254 102 249.50 118Q245 134 241 148L235 168Q221 232 213 297Q205 362 200 425Q198 427 195 427Q190 427 169 417Q148 407 124 395.50Q100 384 79.50 374Q59 364 55 364Q48 364 41.50 370Q35 376 35 382Q35 390 48 400.50Q61 411 80.50 422.50Q100 434 123.50 444.50Q147 455 168.50 463.50Q190 472 205.50 477Q221 482 226 482Q234 482 247 485Q260 488 275 492Q290 496 305.50 499Q321 502 333 502Q346 502 346 493Q346 488 342 485L313 477Q302 474 289.50 470.50Q277 467 266.50 462.50Q256 458 249.50 452.50Q243 447 243 441Q243 416 248.50 375.50Q254 335 261.50 288.50Q269 242 278 194Q287 146 293 104L472 150Q478 151 484 153Q489 155 494 156Q499 157 503 157Q512 157 512 143Z"  horiz-adv-x="519" vert-adv-y="1000"  />

      
      <glyph glyph-name="uni4a" unicode="&#x4a;" d="M318 71Q318 17 293-0.50Q268-18 209-18Q189-18 161.50-12.50Q134-7 108.50 4Q83 15 65.50 31Q48 47 48 68Q48 69 49.50 78.50Q51 88 54 98.50Q57 109 61.50 117.50Q66 126 71 126Q81 126 82.50 120.50Q84 115 84 102Q84 84 96.50 70Q109 56 127 46Q145 36 165.50 31Q186 26 202 26Q215 26 228.50 27.50Q242 29 253 34Q264 39 270.50 48Q277 57 277 72Q277 85 274.50 98.50Q272 112 264.50 134Q257 156 243 190.50Q229 225 207 280Q160 396 146 453.50Q132 511 131 515Q123 514 113 510Q103 506 92.50 501.50Q82 497 72 493Q62 489 55 486Q34 478 17 467.50Q0 457-13 447.50Q-26 438-35 431.50Q-44 425-50 425Q-65 425-68 439Q-71 453-71 463Q-71 474-46 488.50Q-21 503 17 518Q55 533 99.50 547.50Q144 562 183 573Q222 584 249 591Q276 598 279 598Q286 598 287.50 594Q289 590 289 587Q289 581 274.50 573Q260 565 240.50 556Q221 547 200 539Q179 531 166 526L155 522Q160 514 164 507Q168 500 172.50 489Q177 478 183.50 460.50Q190 443 202 415Q224 361 245 307Q266 253 282.50 206.50Q299 160 308.50 124.50Q318 89 318 71Z"  horiz-adv-x="366" vert-adv-y="1000"  />

      
      <glyph glyph-name="uni4b" unicode="&#x4b;" d="M455 135Q455 125 441.50 118.50Q428 112 406 112Q387 112 346.50 116Q306 120 261 129Q216 138 175.50 151.50Q135 165 116 184Q118 176 123 162.50Q128 149 134 133Q145 105 154.50 76.50Q164 48 164 31Q164-1 159.50-17.50Q155-34 140-34Q128-34 123-24Q118-14 118 0Q118 1 118 5Q118 9 119 28Q119 36 118 44Q117 52 115 58Q99 97 85.50 136.50Q72 176 60 224Q57 234 53.50 249.50Q50 265 47 290.50Q44 316 42 353.50Q40 391 40 445Q40 487 47 509.50Q54 532 64 532Q73 532 79 518.50Q85 505 85 493Q85 460 84.50 442Q84 424 84 416Q84 385 87 354.50Q90 324 94 298Q98 268 104 241Q116 266 130.50 294.50Q145 323 161 351.50Q177 380 193 408Q209 436 224 461Q234 478 246.50 490Q259 502 270 502Q278 502 288 495.50Q298 489 298 478Q298 475 297 471.50Q296 468 295 466Q290 458 283.50 450Q277 442 272 434Q256 411 236 382Q216 353 198.50 324.50Q181 296 169 271Q157 246 157 231Q157 215 176 203Q195 191 223 182.50Q251 174 284.50 168.50Q318 163 347 159.50Q376 156 396.50 154.50Q417 153 419 153Q442 153 448.50 149.50Q455 146 455 135Z"  horiz-adv-x="468" vert-adv-y="1000"  />

      
      <glyph glyph-name="uni4c" unicode="&#x4c;" d="M370 76Q370 69 364 65Q355 59 333 48Q311 37 284.50 25Q258 13 229 0Q200-13 176-23Q152-33 135.50-39.50Q119-46 118-46Q110-46 100.50-28Q91-10 82 20.50Q73 51 65 91.50Q57 132 50.50 177Q44 222 40.50 268.50Q37 315 37 358Q37 422 43.50 458Q50 494 58.50 512Q67 530 74 534.50Q81 539 82 539Q90 539 95 532Q100 525 100 518Q100 514 96 504Q92 494 87.50 476Q83 458 79.50 430Q76 402 76 362Q76 326 79.50 287Q83 248 89 210Q95 172 102.50 138Q110 104 118 78Q126 52 133 36.50Q140 21 146 21Q147 21 159 26Q171 31 189 38.50Q207 46 228.50 53.50Q250 61 272 67Q282 70 295.50 73.50Q309 77 321 80Q333 83 342.50 85Q352 87 354 87Q370 87 370 76Z"  horiz-adv-x="384" vert-adv-y="1000"  />

      
      <glyph glyph-name="uni4d" unicode="&#x4d;" d="M519-54Q521-60 523-65Q525-70 526.50-76Q528-82 528-87Q528-94 523-98.50Q518-103 511.50-106Q505-109 499-110Q493-111 492-111Q486-111 470-74.50Q454-38 435.50 28Q417 94 398 185Q379 276 367 385Q365 362 359.50 331.50Q354 301 343 274Q332 247 314.50 228.50Q297 210 270 210Q251 210 227 230Q203 250 180.50 277.50Q158 305 139.50 333.50Q121 362 112 380Q116 336 125.50 274Q135 212 155 143Q157 136 159.50 132.50Q162 129 164.50 125Q167 121 168.50 116.50Q170 112 170 103Q170 90 160 84Q150 78 141 78Q136 78 128 93.50Q120 109 111 134Q102 159 93 189.50Q84 220 76.50 250Q69 280 64 306.50Q59 333 59 349Q59 375 61.50 385Q64 395 69 400L69 461Q69 475 76.50 482.50Q84 490 96 490Q106 490 119 473Q132 456 147.50 430Q163 404 180 374Q197 344 213.50 318Q230 292 245.50 275Q261 258 275 258Q288 258 300 282.50Q312 307 322.50 347Q333 387 341 438Q349 489 354 542Q354 548 353 555.50Q352 563 352 572Q352 584 357.50 598Q363 612 379 612Q388 612 393.50 607Q399 602 401 594.50Q403 587 403.50 579.50Q404 572 404 567Q404 559 402.50 540.50Q401 522 401 484Q401 451 406 407.50Q411 364 419.50 315.50Q428 267 439.50 215.50Q451 164 464.50 115Q478 66 491.50 22.50Q505-21 519-54Z"  horiz-adv-x="513" vert-adv-y="1000"  />

      
      <glyph glyph-name="uni4e" unicode="&#x4e;" d="M473 39Q473 29 464 21Q455 13 444 13Q442 13 438 15.50Q434 18 432 20Q390 60 343 99Q296 138 248 179Q200 220 153.50 265Q107 310 66 363Q79 309 101 248.50Q123 188 143.50 135Q164 82 179 43.50Q194 5 194-5Q194-17 184.50-24.50Q175-32 165-32Q159-32 152-19.50Q145-7 136.50 13Q128 33 119.50 57.50Q111 82 103 106.50Q95 131 88 152.50Q81 174 77 188L50 269Q41 295 32 322.50Q23 350 15.50 374Q8 398 3.50 416Q-1 434-1 440Q-1 451 2 462.50Q5 474 13 474Q18 474 20 471.50Q22 469 24 469L36 474Q41 474 53.50 461.50Q66 449 82.50 429Q99 409 118 384Q137 359 156.50 335Q176 311 193.50 290Q211 269 225 257Q247 237 269 219Q291 201 313.50 182.50Q336 164 361 143Q386 122 416 95Q417 94 421 94Q423 94 423 99Q423 104 423 111Q423 125 415 161.50Q407 198 392.50 246.50Q378 295 359 350.50Q340 406 318.50 457.50Q297 509 273.50 551Q250 593 228 616Q222 622 219.50 634Q217 646 217 654Q217 661 226.50 669.50Q236 678 244 678Q256 678 271 654Q286 630 303 591.50Q320 553 337.50 505Q355 457 372 408Q392 350 409.50 293.50Q427 237 440.50 188Q454 139 462.50 100Q471 61 473 39Z"  horiz-adv-x="473" vert-adv-y="1000"  />

      
      <glyph glyph-name="uni4f" unicode="&#x4f;" d="M360 258Q362 245 362.50 237Q363 229 363 221Q363 196 356.50 162Q350 128 334.50 97.50Q319 67 293.50 45.50Q268 24 229 24Q193 24 161 44.50Q129 65 104 97.50Q79 130 64.50 170.50Q50 211 50 251Q50 309 57.50 350.50Q65 392 79 423Q79 426 75.50 429Q72 432 72 437Q72 442 81.50 450Q91 458 104.50 465.50Q118 473 131.50 478.50Q145 484 152 484Q156 484 165.50 480Q175 476 190 476Q195 476 200 477Q205 478 211 478Q232 478 256.50 458.50Q281 439 302.50 408Q324 377 339.50 337.50Q355 298 360 258M320 219Q320 238 312 273.50Q304 309 288 343.50Q272 378 249.50 404Q227 430 199 430Q197 430 191.50 430.50Q186 431 179 431.50Q172 432 166 432.50Q160 433 159 433Q143 433 131.50 418Q120 403 112.50 379Q105 355 101 324Q97 293 97 262Q97 251 103 219.50Q109 188 124.50 154.50Q140 121 166 95Q192 69 232 69Q259 69 276 85.50Q293 102 302.50 126Q312 150 316 175.50Q320 201 320 219Z"  horiz-adv-x="403" vert-adv-y="1000"  />

      
      <glyph glyph-name="uni50" unicode="&#x50;" d="M313 474Q313 409 297.50 360Q282 311 262.50 273.50Q243 236 224.50 206.50Q206 177 200 150Q195 132 178 132Q176 132 175 132.50Q174 133 172 133Q179 116 193 94.50Q207 73 221 51Q235 29 245.50 8Q256-13 256-28Q256-36 245.50-43.50Q235-51 227-51Q223-51 221-46Q211-10 184 31Q157 72 128.50 123Q100 174 78 238Q56 302 56 383Q56 417 59.50 440.50Q63 464 80 464Q90 464 94 458Q98 452 98 445Q98 354 115 285Q132 216 153 178L170 204Q196 244 215 274.50Q234 305 246 334.50Q258 364 263.50 395Q269 426 269 467Q269 478 266.50 491Q264 504 258.50 514.50Q253 525 245 532Q237 539 225 539Q209 539 176.50 530Q144 521 110 506Q76 491 48 472.50Q20 454 14 435Q13 433 11 430Q9 427 7 427Q0 427-8 438Q-16 449-16 457Q-16 475 0 492Q16 509 40.50 523Q65 537 95 548.50Q125 560 153 567.50Q181 575 203.50 579.50Q226 584 236 584Q252 584 266.50 575Q281 566 291 551Q301 536 307 516Q313 496 313 474Z"  horiz-adv-x="356" vert-adv-y="1000"  />

      
      <glyph glyph-name="uni51" unicode="&#x51;" d="M476 96Q476 80 466.50 64Q457 48 441.50 35Q426 22 406 14Q386 6 365 6Q356 6 345.50 8.50Q335 11 326 14Q317 17 310 20Q303 23 301 25Q288 13 271 4.50Q254-4 234-4Q196-4 162 21Q128 46 103 88Q78 130 63.50 185Q49 240 49 300Q49 343 55.50 393Q62 443 73 485.50Q84 528 100 556Q116 584 135 584Q139 584 151 580.50Q163 577 163 570Q163 567 160 564.50Q157 562 154 560L144 550Q156 553 171 556Q186 559 203 559Q227 559 257 534Q287 509 312.50 470Q338 431 355.50 382.50Q373 334 373 286Q373 209 362.50 157Q352 105 331 63Q334 58 348.50 55Q363 52 370 52Q386 52 398 58Q410 64 418.50 73Q427 82 432.50 91.50Q438 101 441 108Q446 120 450 120Q459 120 467.50 113.50Q476 107 476 96M239 207Q239 188 245 167Q251 146 259.50 128Q268 110 278 97.50Q288 85 297 84Q305 96 312.50 118.50Q320 141 325.50 168Q331 195 334 224Q337 253 337 279Q337 321 322.50 364.50Q308 408 287 443Q266 478 241.50 500.50Q217 523 196 523Q174 523 157.50 519Q141 515 121 506Q112 479 106.50 456Q101 433 97 409Q93 385 91.50 358.50Q90 332 90 299Q90 248 103 201Q116 154 137 118Q158 82 183.50 61Q209 40 234 40Q254 40 267 50Q258 59 245 75.50Q232 92 220 111.50Q208 131 199.50 151.50Q191 172 191 191Q191 197 191.50 207.50Q192 218 194.50 228Q197 238 201.50 245.50Q206 253 214 253Q221 253 225.50 247Q230 241 233 233.50Q236 226 237.50 218Q239 210 239 207Z"  horiz-adv-x="488" vert-adv-y="1000"  />

      
      <glyph glyph-name="uni52" unicode="&#x52;" d="M592-46Q592-53 587-61Q582-69 573-69Q568-69 562-66Q526-49 478-38.50Q430-28 379.50-20Q329-12 281-2.50Q233 7 197 22Q203 9 209 1Q215-7 219.50-13Q224-19 227-24.50Q230-30 230-39Q230-47 224-51Q218-55 212-55Q200-55 186.50-40Q173-25 159-2Q145 21 131.50 49.50Q118 78 107 105Q96 132 88 154.50Q80 177 77 189L33 365Q33 368 34.50 373Q36 378 42 383Q38 391 38 400Q38 428 70 451.50Q102 475 147.50 491.50Q193 508 243 517Q293 526 328 526Q338 526 358 524.50Q378 523 397.50 517Q417 511 431.50 498.50Q446 486 446 464Q446 443 424.50 416Q403 389 371 359Q339 329 302 297.50Q265 266 233 234.50Q201 203 179.50 173.50Q158 144 158 119Q158 100 174.50 85.50Q191 71 216 60Q241 49 270.50 41Q300 33 326.50 28Q353 23 372.50 20.50Q392 18 396 18Q409 18 441 15Q473 12 506.50 4.50Q540-3 566-15Q592-27 592-46M399 463Q399 470 392 475.50Q385 481 373.50 484.50Q362 488 348.50 489.50Q335 491 322 491Q302 491 274 485Q246 479 217.50 470Q189 461 165 452Q141 443 130 437Q109 425 89 410.50Q69 396 69 382Q69 380 72 378Q75 376 75 371Q75 365 81 340.50Q87 316 95 285.50Q103 255 112.50 225Q122 195 130 177Q171 235 218.50 278.50Q266 322 306 355.50Q346 389 372.50 414.50Q399 440 399 463Z"  horiz-adv-x="512" vert-adv-y="1000"  />

      
      <glyph glyph-name="uni53" unicode="&#x53;" d="M441 145Q441 100 425 74.50Q409 49 378 27Q370 22 356 15Q342 8 325 2Q308-4 289-8Q270-12 254-12Q209-12 186-2.50Q163 7 163 20Q163 34 171 43Q179 52 185 53L196 45Q201 40 210 34.50Q219 29 239 29Q258 29 285 35.50Q312 42 336.50 55.50Q361 69 378.50 89Q396 109 396 135Q396 158 361.50 177.50Q327 197 253 204Q215 207 178 213.50Q141 220 111.50 231.50Q82 243 64 260.50Q46 278 46 304Q46 329 60 352Q74 375 94.50 394.50Q115 414 137 429Q159 444 174 454Q186 461 207.50 472.50Q229 484 253.50 494.50Q278 505 302.50 512.50Q327 520 344 520Q364 520 371 509Q378 498 378 478Q378 461 374 442Q370 423 365 405Q360 387 355.50 373.50Q351 360 349 356Q345 347 340 344Q335 341 333 341Q329 341 329 346Q329 349 330.50 357.50Q332 366 334.50 378Q337 390 338.50 404Q340 418 340 432Q340 454 338 464Q336 474 322 474Q308 474 284 466.50Q260 459 235 448Q208 436 182.50 417Q157 398 137 378Q117 358 104.50 339.50Q92 321 92 310Q92 298 108.50 287.50Q125 277 150.50 269Q176 261 207 255Q238 249 268 246Q293 243 323 238Q353 233 379 222Q405 211 423 192.50Q441 174 441 145Z"  horiz-adv-x="456" vert-adv-y="1000"  />

      
      <glyph glyph-name="uni54" unicode="&#x54;" d="M592 549Q592 542 586.50 537.50Q581 533 576 533Q567 533 547.50 531Q528 529 505.50 526.50Q483 524 461.50 521.50Q440 519 427 517Q423 517 410.50 516Q398 515 382.50 513.50Q367 512 351.50 510Q336 508 327 507Q316 505 295 500Q274 495 257 490Q251 488 246 487Q241 486 238 485Q234 484 231 483L285 292Q288 283 295 263Q302 243 311.50 219Q321 195 331.50 169Q342 143 350 121Q355 108 361 89Q367 70 372 50.50Q377 31 380.50 15Q384-1 384-7Q384-21 376-36.50Q368-52 355-52Q343-52 343-35L343-28Q343-25 343.50-21Q344-17 344-12Q344-4 338 15.50Q332 35 323 59.50Q314 84 303.50 111.50Q293 139 283.50 163.50Q274 188 267 205.50Q260 223 258 229Q255 237 250.50 252Q246 267 240 286Q234 305 227.50 326.50Q221 348 215 369Q200 418 182 476Q177 475 149.50 471.50Q122 468 88 464Q54 460 23 456.50Q-8 453-19 453Q-44 453-51 461Q-58 469-59 481Q-59 489-55 497.50Q-51 506-44 506Q-36 506-31.50 503.50Q-27 501-20 501Q-18 501 0.50 503Q19 505 44.50 508Q70 511 97.50 514Q125 517 146 519Q151 519 156.50 519.50Q162 520 167 521Q172 522 177 522Q177 525 180.50 535.50Q184 546 188 546Q198 546 204.50 538.50Q211 531 216 528Q223 529 237.50 532.50Q252 536 268.50 539Q285 542 300.50 544.50Q316 547 327 548L444 555Q459 556 478.50 557.50Q498 559 517 561Q536 563 550 564.50Q564 566 569 566Q578 565 585 560Q592 555 592 549Z"  horiz-adv-x="427" vert-adv-y="1000"  />

      
      <glyph glyph-name="uni55" unicode="&#x55;" d="M440-46Q440-58 434-61.50Q428-65 420-65Q414-65 404-63Q399-62 389.50-53.50Q380-45 369-34Q357-22 343-7L293 50Q291 47 284 37.50Q277 28 266.50 17.50Q256 7 242-1Q228-9 212-9Q201-9 185.50-2.50Q170 4 154 16Q138 28 122.50 45Q107 62 96 83Q82 110 72.50 139.50Q63 169 57.50 199Q52 229 50 258.50Q48 288 48 314Q48 351 51.50 367Q55 383 75 383Q83 383 87.50 377.50Q92 372 92 366Q92 310 100 252.50Q108 195 123 147.50Q138 100 160.50 70Q183 40 213 40Q226 40 236 49.50Q246 59 252.50 72Q259 85 262 97Q265 109 266 115Q260 129 253.50 152.50Q247 176 242 204Q237 232 234 262Q231 292 231 320Q231 363 231.50 390.50Q232 418 235 433.50Q238 449 244 454.50Q250 460 261 460Q267 460 272.50 456.50Q278 453 281.50 449Q285 445 287 441Q289 437 289 436Q289 432 287 429.50Q285 427 285 423Q285 415 287.50 400Q290 385 293 369Q299 337 304.50 296Q310 255 310 201L310 159Q310 151 318.50 126.50Q327 102 357 55Q377 23 394.50 4Q412-15 423-26Q430-32 435-37.50Q440-43 440-46M287 288Q286 294 284 303Q282 312 279.50 321Q277 330 275.50 336Q274 342 274 342Q274 331 274.50 315.50Q275 300 276.50 284.50Q278 269 280 254.50Q282 240 285 230Q285 237 286 244Q286 250 286.50 257.50Q287 265 287 273L287 288Z"  horiz-adv-x="399" vert-adv-y="1000"  />

      
      <glyph glyph-name="uni56" unicode="&#x56;" d="M295 119Q295 106 291 83.50Q287 61 281 39Q275 17 267 1Q259-15 252-15Q241-15 220 4.50Q199 24 175 51Q151 78 128.50 107Q106 136 93 156Q76 182 62.50 209Q49 236 39.50 261Q30 286 25 307.50Q20 329 20 344Q20 357 27.50 366Q35 375 41 375Q50 375 54 368.50Q58 362 61 350.50Q64 339 68 323Q72 307 81 287Q91 263 109.50 231.50Q128 200 150 168Q172 136 194.50 108Q217 80 236 65Q242 82 245 110Q248 138 248 166Q248 192 245 226.50Q242 261 236.50 297.50Q231 334 224 369.50Q217 405 210 434L179 549Q179 559 189 565.50Q199 572 208 572Q221 572 226 566.50Q231 561 232.50 550Q234 539 234.50 522.50Q235 506 240 485Q250 438 259.50 384.50Q269 331 277 280.50Q285 230 290 187Q295 144 295 119Z"  horiz-adv-x="334" vert-adv-y="1000"  />

      
      <glyph glyph-name="uni57" unicode="&#x57;" d="M519 112Q519 78 500.50 54Q482 30 437 30Q406 30 374.50 41Q343 52 313 70Q283 88 255.50 112Q228 136 206 162Q204 153 200 136Q196 119 190 102Q184 85 176.50 72.50Q169 60 161 60Q148 60 132.50 73Q117 86 101.50 107.50Q86 129 71.50 157Q57 185 46 215Q17 298 9 345.50Q1 393 1 397Q1 403 3 408Q5 413 12 413Q23 413 28.50 406.50Q34 400 36 390Q41 369 49.50 341.50Q58 314 68.50 285Q79 256 90.50 228.50Q102 201 113 179Q124 157 134 143.50Q144 130 151 130Q158 130 161.50 141.50Q165 153 167 168Q169 183 169.50 197Q170 211 170 216Q165 225 162.50 237Q160 249 160 257Q160 270 166.50 279Q173 288 179 288Q183 288 184.50 287Q186 286 189 285Q192 285 194 285.50Q196 286 199 286Q201 286 203.50 284.50Q206 283 209 276Q222 242 246 206Q270 170 300 141Q330 112 365 93Q400 74 436 74Q449 74 460 82.50Q471 91 471 105Q471 147 462.50 191Q454 235 439.50 281Q425 327 406 374.50Q387 422 367 472Q350 514 334.50 538.50Q319 563 307.50 577.50Q296 592 289 601.50Q282 611 282 625Q282 642 294.50 650Q307 658 321 658Q329 658 339 642.50Q349 627 360 602.50Q371 578 382 548Q393 518 404 488Q420 444 440 393.50Q460 343 477.50 292.50Q495 242 507 195Q519 148 519 112Z"  horiz-adv-x="559" vert-adv-y="1000"  />

      
      <glyph glyph-name="uni58" unicode="&#x58;" d="M407 47Q407 36 400.50 34Q394 32 389 32Q387 32 362.50 54Q338 76 304.50 106Q271 136 237 166Q203 196 182 212Q183 198 185 178.50Q187 159 189 140.50Q191 122 192.50 107.50Q194 93 194 87Q194 72 187.50 61Q181 50 167 50Q157 50 154.50 52.50Q152 55 150 66Q147 81 144 106.50Q141 132 139 160.50Q137 189 135.50 216Q134 243 133 260Q128 266 113 284Q98 302 78.50 327Q59 352 37.50 381Q16 410-2 437Q-20 464-32 486Q-44 508-44 519Q-44 527-36 538.50Q-28 550-19 550Q-11 550 4.50 524Q20 498 41 463Q62 428 86 391.50Q110 355 134 333Q136 352 135.50 369Q135 386 136 402Q136 410 137 431Q138 452 140 478.50Q142 505 145.50 533Q149 561 155.50 584.50Q162 608 170.50 623Q179 638 192 638Q200 638 202 626Q204 614 204 610Q204 573 199.50 539Q195 505 190 469.50Q185 434 180.50 394Q176 354 176 305Q176 302 176 299Q176 296 178 291Q182 282 201 264Q220 246 245.50 223.50Q271 201 299.50 176Q328 151 352 126.50Q376 102 391.50 81.50Q407 61 407 47Z"  horiz-adv-x="412" vert-adv-y="1000"  />

      
      <glyph glyph-name="uni59" unicode="&#x59;" d="M317 335Q317 321 310.50 315Q304 309 296 309Q287 309 278.50 312Q270 315 257 320L242 326Q240 321 239.50 313.50Q239 306 239 301Q239 266 242 225Q245 184 249 143Q253 102 258.50 63Q264 24 268-7.50Q272-39 275-60.50Q278-82 278-88L278-113Q278-124 275.50-133Q273-142 265-142Q250-142 239.50-117.50Q229-93 222.50-61.50Q216-30 213-0.50Q210 29 210 39Q210 46 207.50 73Q205 100 202 133.50Q199 167 196.50 201.50Q194 236 194 260Q194 270 193.50 282.50Q193 295 193 306L193 337Q193 353 170.50 370Q148 387 116 407.50Q84 428 50 454.50Q16 481-6 518Q-9 519-9 527Q-9 541-3 552Q3 563 13 563Q16 563 22 555.50Q28 548 37 537Q46 526 58 512.50Q70 499 85 487Q95 478 113 464.50Q131 451 148.50 438Q166 425 179 415.50Q192 406 193 406Q197 406 198 414Q199 422 199 424L204 484Q209 535 216.50 576.50Q224 618 224 649Q224 652 222 661Q220 670 220 673Q220 679 224 682.50Q228 686 233 688Q239 691 247 692Q261 692 267 681.50Q273 671 273 662Q273 626 268.50 592Q264 558 258.50 524Q253 490 248.50 454.50Q244 419 244 380Q244 374 251 367.50Q258 361 268.50 355.50Q279 350 292 344.50Q305 339 317 335Z"  horiz-adv-x="314" vert-adv-y="1000"  />

      
      <glyph glyph-name="uni5a" unicode="&#x5a;" d="M562 79Q562 68 550 62Q538 56 523 56Q520 56 514 56.50Q508 57 501 58Q494 59 489 60Q484 61 484 61Q450 61 403 49.50Q356 38 306.50 24.50Q257 11 209-0.50Q161-12 124-12Q78-12 57-0.50Q36 11 36 48Q36 73 53 107Q70 141 95 178Q120 215 150 253.50Q180 292 205 326Q230 360 247 387.50Q264 415 264 431Q264 444 244.50 451Q225 458 203 458Q191 458 183.50 456.50Q176 455 162.50 453.50Q149 452 124 451Q99 450 51 450Q36 450 23.50 457.50Q11 465 11 475Q11 482 20 492.50Q29 503 35 504Q38 504 51 500Q64 496 73 496Q116 496 144 495Q172 494 193 492Q203 491 224 491.50Q245 492 266.50 488Q288 484 304 473.50Q320 463 320 441Q320 423 308.50 398Q297 373 278.50 345Q260 317 237.50 287Q215 257 193 229Q170 199 151.50 176Q133 153 120.50 132.50Q108 112 101 94Q94 76 94 57Q94 53 98 50.50Q102 48 108 47Q114 46 120 45.50Q126 45 130 45Q146 45 192 54Q238 63 297.50 74.50Q357 86 420.50 95Q484 104 535 104Q546 104 554 99.50Q562 95 562 79Z"  horiz-adv-x="563" vert-adv-y="1000"  />

      
      <glyph glyph-name="uni5f" unicode="&#x5f;" d="M339-45Q339-50 334.50-57Q330-64 324-65Q321-66 290.50-69Q260-72 213-72Q206-72 184-71Q162-70 136-68.50Q110-67 84.50-65.50Q59-64 46-64Q41-64 24.50-65Q8-66 0-66Q-19-66-19-51Q-19-42-13.50-37.50Q-8-33 0-31Q8-29 16.50-28.50Q25-28 32-28Q48-28 74.50-29Q101-30 127-31.50Q153-33 174.50-34Q196-35 203-35Q217-35 233-34Q249-33 265-31.50Q281-30 295-28.50Q309-27 319-27Q330-27 334.50-33.50Q339-40 339-45Z"  horiz-adv-x="319" vert-adv-y="1000"  />

      
      <glyph glyph-name="uni61" unicode="&#x61;" d="M515 208Q515 190 498.50 163.50Q482 137 454 112Q426 87 389 69.50Q352 52 312 52Q294 52 274 58Q254 64 235 75.50Q216 87 201 103.50Q186 120 179 141Q173 135 164.50 121Q156 107 146 92.50Q136 78 124 67.50Q112 57 99 57Q86 57 77.50 70.50Q69 84 64 100.50Q59 117 57 132Q55 147 55 149Q55 161 62 194.50Q69 228 83 264Q97 300 118.50 328Q140 356 169 356Q180 356 183.50 346.50Q187 337 187 328L187 298Q192 294 197.50 292.50Q203 291 207.50 288.50Q212 286 214.50 281Q217 276 217 265Q217 258 216 252.50Q215 247 215 242Q215 216 219 191Q223 166 235 146.50Q247 127 268 114.50Q289 102 324 102Q368 102 398.50 120.50Q429 139 449.50 161.50Q470 184 482 202.50Q494 221 502 221Q515 221 515 208M164 252Q164 256 162 259.50Q160 263 160 266Q160 270 162 273Q164 276 164 281Q164 284 162 285.50Q160 287 160 289Q151 287 141.50 272Q132 257 123.50 237Q115 217 110 196.50Q105 176 105 163Q105 156 109 140Q113 124 118 119Q135 154 149.50 187Q164 220 164 252Z"  horiz-adv-x="487" vert-adv-y="1000"  />

      
      <glyph glyph-name="uni62" unicode="&#x62;" d="M278 199Q278 154 267.50 120Q257 86 242 63.50Q227 41 211.50 30Q196 19 186 19Q172 19 159 31.50Q146 44 146 55Q146 71 159 71Q164 71 169 67.50Q174 64 178 62Q195 76 210.50 108Q226 140 226 199Q226 223 221 242Q216 261 209.50 274Q203 287 196 294Q189 301 186 301Q176 301 166.50 281Q157 261 150 235.50Q143 210 138.50 185.50Q134 161 134 152Q135 146 136 141Q137 136 138 131Q139 126 139 121Q139 102 126 87Q113 72 101 72Q95 72 91.50 80.50Q88 89 86 102Q84 115 82.50 129Q81 143 79 154Q71 172 58 211Q45 250 30.50 294.50Q16 339 3.50 381Q-9 423-15 448Q-29 502-36.50 542.50Q-44 583-48.50 613.50Q-53 644-54 666Q-55 688-55 703Q-55 712-47.50 717Q-40 722-34 722Q-25 722-21 718.50Q-17 715-15.50 704Q-14 693-12.50 672Q-11 651-7 616Q-5 599 0.50 569Q6 539 15 502Q24 465 34.50 424.50Q45 384 56.50 347Q68 310 79.50 279Q91 248 101 230Q110 266 123 295Q134 319 150 339.50Q166 360 189 360Q198 360 213 352Q228 344 242.50 325Q257 306 267.50 275Q278 244 278 199Z"  horiz-adv-x="331" vert-adv-y="1000"  />

      
      <glyph glyph-name="uni63" unicode="&#x63;" d="M328 182Q328 172 325 161.50Q322 151 319 144Q317 141 300.50 123.50Q284 106 259.50 87Q235 68 204.50 52.50Q174 37 146 37Q129 37 111.50 43Q94 49 79 62.50Q64 76 54.50 96Q45 116 45 145Q45 193 61 232Q77 271 93 294Q100 305 111.50 316.50Q123 328 134 337.50Q145 347 154.50 353Q164 359 168 359Q177 359 184.50 354Q192 349 192 344Q192 336 187.50 330.50Q183 325 175 318.50Q167 312 156 301.50Q145 291 133 274Q109 241 97.50 206.50Q86 172 86 146Q86 120 105.50 104.50Q125 89 146 89Q184 89 213.50 106Q243 123 264 144Q285 165 298 182Q311 199 317 199Q328 199 328 182Z"  horiz-adv-x="368" vert-adv-y="1000"  />

      
      <glyph glyph-name="uni64" unicode="&#x64;" d="M323 161Q323 156 318.50 151.50Q314 147 313 142Q313 131 317.50 121Q322 111 322 97Q322 84 314 84Q304 84 299.50 81.50Q295 79 284 77Q278 77 271 88Q267 93 264 100Q264 101 258.50 96Q253 91 240.50 84.50Q228 78 206.50 72.50Q185 67 152 67Q124 67 103 79.50Q82 92 68.50 112Q55 132 48.50 157.50Q42 183 42 209Q42 233 47.50 254.50Q53 276 63 292.50Q73 309 88 319Q103 329 123 329Q142 329 161 317Q180 305 195 291Q210 277 219.50 265.50Q229 254 229 254Q215 332 204 395Q199 422 194.50 448.50Q190 475 186 496Q182 517 179.50 531.50Q177 546 177 549Q176 555 175 570.50Q174 586 173 603Q172 620 171 634Q170 648 169 652Q166 662 161.50 677Q157 692 157 694Q157 699 162 706.50Q167 714 175 714Q181 714 186 713Q191 712 195 707Q199 702 202.50 691.50Q206 681 209 662Q210 652 215 624Q220 596 225 563Q230 530 235 500Q240 470 242 456Q247 418 255.50 373.50Q264 329 273 288Q282 247 291 215.50Q300 184 307 173Q309 169 315 167.50Q321 166 323 161M249 141Q248 144 236.50 166.50Q225 189 207.50 215.50Q190 242 168.50 263Q147 284 127 284Q110 284 99.50 258Q89 232 89 198Q89 160 111.50 137Q134 114 162 114Q186 114 212 122Q238 130 249 141Z"  horiz-adv-x="360" vert-adv-y="1000"  />

      
      <glyph glyph-name="uni65" unicode="&#x65;" d="M318 105Q319 103 319 99Q319 93 310 81Q307 77 297 68Q287 59 270 50Q253 41 228.50 34Q204 27 171 27Q148 27 126 37.50Q104 48 87 68.50Q70 89 59 119.50Q48 150 48 191Q48 230 58 264Q68 298 83.50 324Q99 350 118 365Q137 380 155 380Q171 380 187.50 373.50Q204 367 217.50 357Q231 347 239 334.50Q247 322 247 309Q247 294 233.50 278Q220 262 201 248.50Q182 235 163 226.50Q144 218 133 218Q127 218 122.50 223.50Q118 229 118 237Q118 251 130.50 259Q143 267 158 273.50Q173 280 185.50 289Q198 298 198 314Q198 316 193 324Q188 332 166 332Q156 332 143 320.50Q130 309 118 289.50Q106 270 98 243.50Q90 217 90 186Q90 160 99.50 139Q109 118 124 103.50Q139 89 159 81Q179 73 200 73Q215 73 232.50 79.50Q250 86 265.50 93.50Q281 101 292.50 107.50Q304 114 307 114Q310 114 313.50 111Q317 108 318 105Z"  horiz-adv-x="349" vert-adv-y="1000"  />

      
      <glyph glyph-name="uni66" unicode="&#x66;" d="M367 717Q368 715 368 710Q368 705 368 699Q368 692 363 692Q361 692 358 693Q355 694 353 695Q335 703 309.50 715.50Q284 728 252 728Q216 728 194 701Q172 674 160.50 638.50Q149 603 145.50 569Q142 535 142 520Q142 509 145.50 485.50Q149 462 155 437Q161 412 169 391.50Q177 371 185 366Q191 366 206.50 367Q222 368 232 368Q249 368 264 365Q279 362 295 362Q299 362 307 362Q315 362 323.50 361Q332 360 338 357.50Q344 355 344 351Q344 346 337 342Q330 338 321 335.50Q312 333 303 332Q294 331 289 331Q284 331 276 331.50Q268 332 258.50 333Q249 334 240.50 334.50Q232 335 226 335Q210 335 206.50 331.50Q203 328 203 318Q203 303 216.50 277.50Q230 252 246 223Q262 194 275.50 163Q289 132 289 106Q289 101 286.50 87.50Q284 74 279.50 60Q275 46 267 35Q259 24 249 24Q241 24 234.50 28.50Q228 33 228 44Q228 60 236.50 74Q245 88 245 104Q245 112 237.50 131Q230 150 219 173.50Q208 197 195 223Q182 249 170.50 270.50Q159 292 151 306Q143 320 142 321Q122 314 101 307Q80 300 63 286Q56 279 50 279Q40 279 31.50 287Q23 295 23 305Q23 316 29.50 322.50Q36 329 42 332Q51 337 70 343Q89 349 108 353Q115 355 121 356.50Q127 358 127 363Q124 373 118.50 389.50Q113 406 107.50 429Q102 452 98 480.50Q94 509 94 542Q94 578 102.50 618Q111 658 129.50 691.50Q148 725 176 746.50Q204 768 243 768Q261 768 283 764.50Q305 761 323.50 754.50Q342 748 354.50 738.50Q367 729 367 717Z"  horiz-adv-x="391" vert-adv-y="1000"  />

      
      <glyph glyph-name="uni67" unicode="&#x67;" d="M288 88Q288 77 280 73Q272 69 272 62Q271 63 276 51Q281 39 285 26Q292-1 297.50-21Q303-41 306.50-58Q310-75 312-92Q314-109 314-130Q314-151 307-173Q300-195 287-212Q274-229 255-240Q236-251 212-251Q175-251 153.50-236Q132-221 121-202Q110-183 107-164.50Q104-146 104-140Q104-103 123-66Q142-29 165 1Q188 31 207 51Q226 71 226 74L215 107Q205 95 197.50 80.50Q190 66 181.50 53.50Q173 41 161.50 32.50Q150 24 133 24Q115 24 97 35Q79 46 65 68Q51 90 42.50 121Q34 152 34 193Q34 216 41 250.50Q48 285 63 317Q78 349 100.50 371.50Q123 394 153 394Q170 394 184.50 388Q199 382 199 373Q199 365 196 360Q193 355 188 350Q185 352 181.50 354Q178 356 172 356Q150 356 132.50 336.50Q115 317 103 288.50Q91 260 84.50 229Q78 198 78 175Q78 124 95 97.50Q112 71 131 71Q140 71 150.50 84.50Q161 98 170.50 114.50Q180 131 187 146Q194 161 195 164Q197 174 197 187Q197 198 196.50 211.50Q196 225 196 239Q196 265 200 282.50Q204 300 220 300Q236 300 243 290.50Q250 281 250 268Q250 259 249.50 246.50Q249 234 249 222.50Q249 211 248.50 202.50Q248 194 248 192Q248 186 249.50 174.50Q251 163 252.50 151.50Q254 140 255.50 130.50Q257 121 258 118Q259 115 261 109Q263 103 265 100Q266 102 269 104.50Q272 107 274 109Q279 106 283.50 97.50Q288 89 288 88M254-39Q250-23 245-7Q240 9 235 26Q218 5 202.50-14.50Q187-34 174.50-53Q162-72 154.50-92.50Q147-113 147-136Q147-167 164.50-187Q182-207 203-207Q226-207 246.50-190Q267-173 267-141Q267-120 266-106Q265-92 263.50-81.50Q262-71 259.50-61.50Q257-52 254-39Z"  horiz-adv-x="331" vert-adv-y="1000"  />

      
      <glyph glyph-name="uni68" unicode="&#x68;" d="M360 185Q365 180 365 179Q365 177 359.50 167Q354 157 345 146Q336 135 325.50 126.50Q315 118 305 118Q284 118 271 126.50Q258 135 249.50 148Q241 161 236.50 176.50Q232 192 229 206Q227 213 225 213Q222 213 213 191.50Q204 170 193.50 144.50Q183 119 173.50 97.50Q164 76 161 76Q143 76 130.50 91.50Q118 107 110.50 127.50Q103 148 99 169.50Q95 191 94 203Q91 230 81 293Q71 356 64 446Q62 465 59.50 480.50Q57 496 54 515Q51 534 49 558Q47 582 47 617Q47 619 48 630Q49 641 51 654Q53 667 57.50 677Q62 687 68 687Q75 687 81 678.50Q87 670 91.50 659Q96 648 98 638Q100 628 100 624Q100 609 98 596Q96 583 96 572Q96 557 98.50 534Q101 511 105 487Q109 463 112 440.50Q115 418 117 404Q117 403 119 390Q121 377 123.50 357.50Q126 338 128.50 315.50Q131 293 134 271.50Q137 250 139.50 233.50Q142 217 143 210Q143 207 144.50 201.50Q146 196 147.50 189Q149 182 151 176Q153 170 156 167Q162 179 171.50 204Q181 229 191.50 255Q202 281 211.50 300.50Q221 320 228 320Q236 320 241 317Q246 314 254 312Q264 308 264 301.50Q264 295 266 286Q268 274 272.50 254.50Q277 235 283 216.50Q289 198 297 185Q305 172 313 172Q317 172 324 182.50Q331 193 343 194Q345 194 350 191.50Q355 189 360 185Z"  horiz-adv-x="384" vert-adv-y="1000"  />

      
      <glyph glyph-name="uni69" unicode="&#x69;" d="M99 460Q99 458 92 452Q85 446 75.50 439.50Q66 433 56 428Q46 423 40 423Q36 423 29.50 423.50Q23 424 16.50 427Q10 430 5 435.50Q0 441 0 450Q0 464 10 476.50Q20 489 36 489Q39 489 49.50 486.50Q60 484 71 480Q82 476 90.50 471Q99 466 99 460M132 86Q132 79 121.50 74Q111 69 106 69Q96 69 88 82Q80 95 74 112Q68 129 64 144.50Q60 160 58 166Q55 176 50 190Q45 204 40.50 217Q36 230 33 240Q30 250 30 251Q30 265 35.50 277Q41 289 49 289Q58 289 68 275Q78 261 87.50 239.50Q97 218 105 192.50Q113 167 119 144.50Q125 122 128.50 105.50Q132 89 132 86Z"  horiz-adv-x="155" vert-adv-y="1000"  />

      
      <glyph glyph-name="uni6a" unicode="&#x6a;" d="M89 456Q89 454 83.50 448Q78 442 70.50 435.50Q63 429 55.50 424Q48 419 44 419Q28 419 13.50 426Q-1 433-1 445Q-1 450 0.50 457Q2 464 5.50 470.50Q9 477 15 481.50Q21 486 30 486Q36 486 46 483.50Q56 481 65.50 476.50Q75 472 82 466.50Q89 461 89 456M164-94Q164-108 156-119.50Q148-131 137-139Q126-147 114-151.50Q102-156 94-156Q70-156 38.50-148.50Q7-141-20.50-124.50Q-48-108-67-82.50Q-86-57-86-20Q-86-16-84-12.50Q-82-9-77-9Q-70-9-59.50-24.50Q-49-40-31-59Q-13-78 15-93.50Q43-109 87-109Q101-109 106.50-106Q112-103 112-86Q112-70 107.50-51Q103-32 97-13.50Q91 5 85.50 22Q80 39 77 51Q76 54 70.50 76.50Q65 99 59 128.50Q53 158 48 186Q43 214 43 227Q43 234 45 246Q47 258 58 258Q63 258 69 245.50Q75 233 81.50 214.50Q88 196 93.50 174Q99 152 103.50 132.50Q108 113 111 99Q114 85 115 82Q117 74 125 53Q133 32 141.50 5.50Q150-21 157-48Q164-75 164-94Z"  horiz-adv-x="155" vert-adv-y="1000"  />

      
      <glyph glyph-name="uni6b" unicode="&#x6b;" d="M395 107Q395 99 393 95.50Q391 92 383 90Q374 87 360.50 83.50Q347 80 331 76.50Q315 73 298.50 70.50Q282 68 268 68Q251 68 230.50 70Q210 72 191 76.50Q172 81 156.50 86.50Q141 92 134 100Q139 79 143 58Q147 37 149 16Q149 11 146.50 7.50Q144 4 133 4Q128 4 123.50 6.50Q119 9 116 17Q107 37 101 54.50Q95 72 90.50 90Q86 108 81 128Q76 148 69 172Q58 211 46 255.50Q34 300 24 340.50Q14 381 8 412.50Q2 444 2 457Q2 463 2.50 473Q3 483 5.50 492.50Q8 502 12.50 508.50Q17 515 25 515Q30 515 35.50 499.50Q41 484 45.50 465.50Q50 447 53.50 430.50Q57 414 57 413Q61 391 66.50 364.50Q72 338 78 311Q84 284 91 259.50Q98 235 106 218Q107 228 113 247Q119 266 129 288Q139 310 151.50 333.50Q164 357 177.50 376Q191 395 204.50 407Q218 419 230 419Q249 419 256.50 414Q264 409 264 402Q264 396 247 378.50Q230 361 209 332.50Q188 304 171 265.50Q154 227 154 180Q154 163 163.50 150.50Q173 138 188.50 130Q204 122 223.50 117.50Q243 113 262 113Q279 113 299 114Q319 115 336.50 116.50Q354 118 366.50 119Q379 120 382 120Q387 120 391 117Q395 114 395 107Z"  horiz-adv-x="398" vert-adv-y="1000"  />

      
      <glyph glyph-name="uni6c" unicode="&#x6c;" d="M173 29Q173 21 167 17Q161 13 153 13Q144 13 134.50 30Q125 47 116 73Q107 99 99 129.50Q91 160 85 186.50Q79 213 75.50 231Q72 249 72 251Q72 255 68.50 272Q65 289 59.50 325Q54 361 47.50 418.50Q41 476 34 561Q34 570 37 584Q40 598 51 598Q65 598 72.50 579Q80 560 84.50 532Q89 504 91 473.50Q93 443 96 420Q100 388 103.50 362Q107 336 110.50 310.50Q114 285 119.50 257Q125 229 133 195L173 29L173 29Z"  horiz-adv-x="211" vert-adv-y="1000"  />

      
      <glyph glyph-name="uni6d" unicode="&#x6d;" d="M484 94Q484 86 479 80Q474 74 467 70.50Q460 67 452.50 65Q445 63 440 63Q419 63 404 85.50Q389 108 379 135.50Q369 163 364.50 187Q360 211 360 213Q354 202 347.50 176Q341 150 332 123.50Q323 97 309.50 76.50Q296 56 275 56Q265 56 256 68Q247 80 239 99Q231 118 223.50 142Q216 166 208.50 189Q201 212 194 232.50Q187 253 180 265Q174 250 169.50 224Q165 198 162 169.50Q159 141 157 113Q155 85 155 64Q155 50 147.50 44Q140 38 132 38Q121 38 110 52.50Q99 67 88 90Q77 113 67.50 142Q58 171 50.50 200Q43 229 39 255.50Q35 282 35 300Q35 313 36 324Q37 333 37.50 341Q38 349 38 350Q38 353 36.50 354Q35 355 35 359Q35 362 42.50 368.50Q50 375 58 375Q72 375 76.50 369Q81 363 81 355Q81 352 80.50 346Q80 340 80 319Q80 305 85 277Q90 249 97 220Q104 191 111.50 166.50Q119 142 124 136Q126 140 126.50 145.50Q127 151 128 154L139 236Q143 267 155.50 301.50Q168 336 182 355Q187 363 193 363Q199 363 204 354Q221 326 229.50 298.50Q238 271 244.50 244.50Q251 218 259.50 191.50Q268 165 286 138Q294 151 306 180.50Q318 210 330.50 240Q343 270 354 292.50Q365 315 371 315Q374 315 381 314Q388 313 391 313Q400 313 406 292.50Q412 272 416.50 244.50Q421 217 425.50 189.50Q430 162 436 148Q440 138 448 129Q456 120 464 112Q474 103 484 94Z"  horiz-adv-x="524" vert-adv-y="1000"  />

      
      <glyph glyph-name="uni6e" unicode="&#x6e;" d="M340 123Q340 117 336 111Q332 105 326.50 100Q321 95 314.50 91.50Q308 88 303 88Q286 88 259.50 95.50Q233 103 217 119Q200 136 187 159.50Q174 183 158 229Q147 185 132.50 142Q118 99 86 63Q84 61 80 61Q73 61 65 68Q57 75 57 82Q57 89 55.50 114.50Q54 140 52 171.50Q50 203 48.50 235.50Q47 268 47 289Q47 299 48 315.50Q49 332 54 344Q55 346 61.50 352Q68 358 76 358Q83 358 84 349Q85 340 85 329L85 171Q85 166 86.50 157Q88 148 91 144Q102 168 111.50 200.50Q121 233 130 262.50Q139 292 148 312.50Q157 333 166 333Q176 333 182 329Q188 325 192 313Q197 284 200 261.50Q203 239 207.50 221Q212 203 220.50 187.50Q229 172 244 159Q258 146 275.50 140Q293 134 306 134Q312 134 319 136.50Q326 139 329 139Q333 139 336.50 132Q340 125 340 123Z"  horiz-adv-x="352" vert-adv-y="1000"  />

      
      <glyph glyph-name="uni6f" unicode="&#x6f;" d="M219 216Q219 194 213 174Q207 154 197 139Q187 124 173.50 115.50Q160 107 144 107Q116 107 100 123Q84 139 75.50 160Q67 181 64.50 202.50Q62 224 62 235Q62 253 67.50 275.50Q73 298 82.50 317Q92 336 104 349Q116 362 129 362Q132 362 138.50 360Q145 358 152 354Q159 350 164.50 344Q170 338 172 330Q183 329 194 322Q205 315 206 311Q214 285 216.50 259Q219 233 219 216M174 234Q174 249 171 265.50Q168 282 159 299Q157 298 154 298Q150 298 147.50 299Q145 300 143 300Q131 300 124 293.50Q117 287 113.50 276.50Q110 266 109 254Q108 242 108 231Q108 220 109 206.50Q110 193 113.50 181Q117 169 123 160.50Q129 152 139 152Q149 152 156 162.50Q163 173 167 187Q171 201 172.50 214.50Q174 228 174 234Z"  horiz-adv-x="280" vert-adv-y="1000"  />

      
      <glyph glyph-name="uni70" unicode="&#x70;" d="M361 289Q361 263 346.50 239Q332 215 311 194.50Q290 174 265 156.50Q240 139 219 126Q199 112 186 103Q173 94 173 89Q173 76 176 52.50Q179 29 183.50 1.50Q188-26 192.50-55Q197-84 199-108Q199-109 200.50-117Q202-125 204.50-135Q207-145 208.50-153.50Q210-162 210-164Q210-171 209.50-179.50Q209-188 206.50-195.50Q204-203 199-208Q194-213 186-213Q175-213 170-203.50Q165-194 165-185Q165-183 165.50-181Q166-179 166-176Q166-165 158-117Q150-69 140-2.50Q130 64 122 140.50Q114 217 114 285Q114 290 115 296.50Q116 303 116 308Q106 307 86.50 299Q67 291 48 279.50Q29 268 14.50 255.50Q0 243 0 233L-7 233Q-10 233-14.50 237Q-19 241-22.50 246Q-26 251-29 256Q-32 261-32 263Q-32 284-7 302.50Q18 321 55.50 335.50Q93 350 138 358.50Q183 367 223 367Q262 367 288.50 358Q315 349 331 336.50Q347 324 354 311Q361 298 361 289M312 292Q312 302 287 312.50Q262 323 228 323Q198 323 184 321Q170 319 165 317Q163 301 162 279Q161 257 161 234Q161 210 162.50 187.50Q164 165 166 150Q180 159 204.50 174.50Q229 190 253 209.50Q277 229 294.50 250.50Q312 272 312 292Z"  horiz-adv-x="377" vert-adv-y="1000"  />

      
      <glyph glyph-name="uni71" unicode="&#x71;" d="M276-93Q276-96 275-103Q274-110 271.50-116.50Q269-123 264-128.50Q259-134 251-134Q228-134 221-120Q214-106 214-89Q214-85 212-76Q210-67 208-56Q206-45 204-34Q202-23 202-15Q202 0 200.50 19Q199 38 196.50 57.50Q194 77 191.50 95Q189 113 187 127L184 130Q173 123 164.50 113Q156 103 147.50 94Q139 85 129.50 79Q120 73 107 73Q89 73 75 85.50Q61 98 52 115Q43 132 38.50 149.50Q34 167 34 177Q34 199 43.50 227Q53 255 70 279.50Q87 304 110.50 321Q134 338 163 338Q174 338 183 332Q192 326 199.50 317.50Q207 309 212.50 300Q218 291 222 286Q233 273 239 263.50Q245 254 245 240Q245 237 242 222Q239 207 239 197Q239 156 241.50 113.50Q244 71 248 34.50Q252-2 256-29Q260-56 262-66Q264-74 270-76.50Q276-79 276-93M189 243Q188 253 181.50 268Q175 283 155 283Q138 283 124 268.50Q110 254 100 234.50Q90 215 85 196.50Q80 178 80 169Q80 167 81.50 160Q83 153 85.50 145Q88 137 92 131Q96 125 101 125Q113 125 128 141.50Q143 158 156.50 179Q170 200 179.50 219Q189 238 189 243Z"  horiz-adv-x="295" vert-adv-y="1000"  />

      
      <glyph glyph-name="uni72" unicode="&#x72;" d="M276 305Q276 298 270 293.50Q264 289 256 286Q248 283 240 281.50Q232 280 227 280Q212 280 207 282Q202 284 199 284Q174 284 159 280Q144 276 135.50 267Q127 258 124.50 244.50Q122 231 122 212Q122 180 124.50 161Q127 142 129.50 130Q132 118 134.50 111.50Q137 105 137 99Q137 91 128.50 82Q120 73 113 73Q101 73 91.50 94.50Q82 116 75.50 145.50Q69 175 65 204Q61 233 61 248Q61 265 64 280.50Q67 296 72 307.50Q77 319 83 326Q89 333 95 333Q100 333 103 329.50Q106 326 108 321.50Q110 317 112.50 313.50Q115 310 119 310Q128 310 148 319Q168 328 197 328Q224 328 237.50 326.50Q251 325 264 320Q267 319 271.50 315.50Q276 312 276 305Z"  horiz-adv-x="316" vert-adv-y="1000"  />

      
      <glyph glyph-name="uni73" unicode="&#x73;" d="M265 132Q265 115 253.50 102.50Q242 90 224.50 81.50Q207 73 186 68Q165 63 146 60.50Q127 58 112.50 57.50Q98 57 94 57Q72 57 60 64Q48 71 48 89Q48 95 49 99.50Q50 104 57 104Q60 104 67 102.50Q74 101 78 101Q82 101 103.50 102.50Q125 104 149.50 108Q174 112 193.50 119.50Q213 127 213 139Q213 141 192.50 151.50Q172 162 131 187Q99 207 86 227.50Q73 248 73 283Q73 305 82.50 319Q92 333 108.50 341Q125 349 146.50 352.50Q168 356 192 356Q194 356 204.50 354Q215 352 227 347.50Q239 343 248.50 336.50Q258 330 258 322Q258 320 254.50 316Q251 312 243 301Q240 302 232.50 304Q225 306 215.50 308.50Q206 311 196 312.50Q186 314 180 314Q154 314 138 304.50Q122 295 122 268Q122 255 132.50 244Q143 233 159 223.50Q175 214 193.50 204.50Q212 195 228 184Q244 173 254.50 160.50Q265 148 265 132Z"  horiz-adv-x="311" vert-adv-y="1000"  />

      
      <glyph glyph-name="uni74" unicode="&#x74;" d="M305 452Q292 437 268 422.50Q244 408 220 396Q196 384 178 375.50Q160 367 160 364Q160 361 164 346Q168 331 173.50 310.50Q179 290 185 268Q191 246 195 229Q197 219 200 203Q203 187 205.50 171Q208 155 210 142.50Q212 130 212 129Q212 114 207 98Q202 82 191 82Q185 82 180 87Q175 92 171 98.50Q167 105 165 111Q163 117 163 120Q163 122 163.50 126Q164 130 164 135Q164 154 158 190Q156 201 150 224Q144 247 138 271Q131 299 122 332Q118 346 117 346Q110 346 93.50 337.50Q77 329 56 316.50Q35 304 12 289.50Q-11 275-31 262.50Q-51 250-65.50 241.50Q-80 233-83 233Q-96 233-104 242Q-112 251-112 262Q-112 268-95.50 279.50Q-79 291-54.50 305Q-30 319-1.50 334Q27 349 51.50 361Q76 373 92.50 381Q109 389 109 389Q100 435 94 471Q89 502 84.50 528Q80 554 80 556Q80 569 85.50 575.50Q91 582 98 582Q109 582 112 567Q123 513 132.50 471Q142 429 151 403Q160 405 182 414.50Q204 424 228 435Q252 446 271.50 454.50Q291 463 294 463Q300 463 301.50 459Q303 455 305 452Z"  horiz-adv-x="319" vert-adv-y="1000"  />

      
      <glyph glyph-name="uni75" unicode="&#x75;" d="M369 166Q369 157 357 147Q345 137 329 128.50Q313 120 296.50 114Q280 108 272 108Q263 108 252.50 113Q242 118 232.50 125Q223 132 216 138Q209 144 207 146Q204 143 198 134Q192 125 183.50 114.50Q175 104 165.50 96Q156 88 146 88Q120 88 101 116Q82 144 69.50 180Q57 216 50.50 249.50Q44 283 44 295Q44 302 51.50 306.50Q59 311 63 311Q77 311 82 301.50Q87 292 87 281Q87 272 92.50 249Q98 226 106 202Q114 178 123 159.50Q132 141 139 141Q152 141 161.50 157.50Q171 174 177 195.50Q183 217 186 236.50Q189 256 189 262Q189 263 189.50 268.50Q190 274 191 280Q192 286 192.50 291Q193 296 193 298Q193 305 190 307.50Q187 310 187 318Q187 324 193 329.50Q199 335 219 335Q227 335 231.50 330.50Q236 326 238 320Q240 314 240.50 308.50Q241 303 241 301Q241 300 240 287Q239 274 238.50 258.50Q238 243 237 229Q236 215 236 212Q236 209 239 200Q242 191 246.50 181.50Q251 172 257 164.50Q263 157 270 157Q282 157 292.50 160.50Q303 164 312.50 168.50Q322 173 330 176.50Q338 180 345 180Q354 180 361.50 176Q369 172 369 166Z"  horiz-adv-x="369" vert-adv-y="1000"  />

      
      <glyph glyph-name="uni76" unicode="&#x76;" d="M234 352Q234 349 229 326Q224 303 219 274Q216 257 209.50 223.50Q203 190 203 122Q203 120 202.50 111.50Q202 103 199.50 94Q197 85 192 77.50Q187 70 177 70Q168 70 157 78Q132 96 111 120Q90 144 75 172.50Q60 201 52 232Q44 263 44 295Q44 299 49.50 302.50Q55 306 58 306Q73 306 81.50 289Q90 272 98.50 248Q107 224 118.50 197.50Q130 171 153 152Q156 156 158 167Q160 178 161 186Q162 193 164 213.50Q166 234 168.50 257Q171 280 172.50 301Q174 322 174 330Q174 336 175 344Q176 352 179.50 359Q183 366 189 371Q195 376 205 376Q210 376 222 369.50Q234 363 234 352Z"  horiz-adv-x="282" vert-adv-y="1000"  />

      
      <glyph glyph-name="uni77" unicode="&#x77;" d="M342 440Q346 439 346 434Q346 427 339 419.50Q332 412 332 403Q332 401 331.50 388Q331 375 331 359Q331 343 330.50 329Q330 315 330 313L330 214Q330 213 329 200Q328 187 325.50 169Q323 151 320.50 131.50Q318 112 315 98Q314 94 309.50 92Q305 90 299.50 88.50Q294 87 289 86.50Q284 86 283 86Q272 86 259.50 99Q247 112 236 128Q225 144 217 158Q209 172 208 174Q204 160 199 145.50Q194 131 188 119Q182 107 174.50 99Q167 91 158 91Q146 91 133 103Q120 115 106.50 134Q93 153 81 176.50Q69 200 60 222Q51 244 45.50 263Q40 282 40 293Q40 297 44 303Q48 309 55 309Q69 309 75 300Q76 299 81.50 282Q87 265 97 242Q107 219 120.50 194.50Q134 170 151 153Q158 166 162.50 182Q167 198 170 213Q173 228 174 240.50Q175 253 175 261Q173 269 172 277Q171 284 170.50 291Q170 298 170 303Q170 328 190 328Q205 328 213 318.50Q221 309 225 296.50Q229 284 230.50 272Q232 260 234 255Q242 232 248.50 212Q255 192 271 171Q275 174 277.50 181.50Q280 189 281 197Q282 205 282 211.50Q282 218 282 221L282 420Q282 426 287 431Q292 436 299 440Q306 444 312.50 446.50Q319 449 322 449Q327 449 331.50 446Q336 443 342 440Z"  horiz-adv-x="387" vert-adv-y="1000"  />

      
      <glyph glyph-name="uni78" unicode="&#x78;" d="M332 93Q332 74 320.50 67Q309 60 296 60Q273 60 244 80.50Q215 101 183 127Q182 125 177.50 105.50Q173 86 165.50 63Q158 40 147 21Q136 2 122 2Q112 2 106 9.50Q100 17 100 20Q100 27 107 46.50Q114 66 122 88.50Q130 111 137 131Q144 151 144 160Q144 164 128 185Q112 206 93 234.50Q74 263 58 295Q42 327 42 354Q42 361 48 368Q54 375 59 375Q65 375 75.50 370.50Q86 366 88 358Q98 325 114 287.50Q130 250 162 215Q165 226 169 245Q173 264 178 286Q183 308 188.50 330Q194 352 199.50 370Q205 388 210 399Q215 410 220 410Q225 410 235.50 406.50Q246 403 246 392Q246 392 243 375.50Q240 359 235 336Q230 313 224 286.50Q218 260 212 239Q211 236 208.50 228Q206 220 203.50 211Q201 202 199 194.50Q197 187 197 185Q197 176 211.50 163.50Q226 151 244 139.50Q262 128 278.50 120Q295 112 299 112Q302 112 307 113Q312 114 315 114Q323 114 327.50 105Q332 96 332 93Z"  horiz-adv-x="367" vert-adv-y="1000"  />

      
      <glyph glyph-name="uni79" unicode="&#x79;" d="M249 468Q236 399 225 335Q220 308 215 278.50Q210 249 205.50 220.50Q201 192 197.50 166.50Q194 141 192 120Q188 88 186 47Q184 6 182-31Q180-74 180-118Q180-127 178-138Q176-149 176-160Q176-170 171.50-177Q167-184 158-184Q150-184 145.50-171.50Q141-159 138-142.50Q135-126 134-109.50Q133-93 133-86Q133-78 133-66.50Q133-55 134.50-32.50Q136-10 139 26.50Q142 63 148 122Q148 123 134.50 132Q121 141 101.50 154.50Q82 168 61.50 184Q41 200 27 215Q25 217 21 224Q17 231 17 241Q17 246 22 251.50Q27 257 33 257Q37 257 41 253Q64 233 94 208.50Q124 184 153 164Q155 182 161.50 219Q168 256 175 298.50Q182 341 188.50 381Q195 421 198 445Q198 449 200 458Q202 467 206 476Q210 485 215 491.50Q220 498 226 498Q229 498 239 492.50Q249 487 249 468Z"  horiz-adv-x="282" vert-adv-y="1000"  />

      
      <glyph glyph-name="uni7a" unicode="&#x7a;" d="M406 205Q406 197 404.50 189Q403 181 398 179Q378 170 346 163.50Q314 157 287 146Q270 139 245 127Q220 115 193 103Q166 91 141 82.50Q116 74 100 74Q87 74 75 84Q63 94 63 105Q63 125 81.50 153.50Q100 182 124.50 212Q149 242 172.50 269.50Q196 297 206 314Q205 314 203 315.50Q201 317 197 317Q166 307 139 299Q116 292 91.50 286.50Q67 281 52 281Q42 281 36.50 290Q31 299 31 310Q31 313 32.50 316Q34 319 39 319Q52 322 78.50 329Q105 336 135 343.50Q165 351 192.50 356.50Q220 362 235 362Q246 362 258.50 353.50Q271 345 278 332L129 141L123 129Q123 125 126 125Q134 125 148.50 132Q163 139 188.50 152Q214 165 254.50 183Q295 201 355 222Q365 225 374 225Q389 225 397.50 218Q406 211 406 205Z"  horiz-adv-x="405" vert-adv-y="1000"  />

      
      <glyph glyph-name="uni7e" unicode="&#x7e;" d="M516 235Q516 217 509 195Q502 173 487.50 154.50Q473 136 451 123.50Q429 111 399 111Q375 111 351.50 123.50Q328 136 306 154Q284 172 265 194Q246 216 231 234Q216 252 206.50 264.50Q197 277 194 277Q185 277 166 262.50Q147 248 127.50 231Q108 214 93.50 199Q79 184 78 184Q67 175 58 175Q53 175 50.50 179Q48 183 48 188Q48 200 67.50 222Q87 244 113 266Q139 288 164 304.50Q189 321 200 321Q217 321 239.50 294Q262 267 287.50 234.50Q313 202 340.50 175Q368 148 396 148Q415 148 429 155.50Q443 163 452.50 175Q462 187 466.50 201Q471 215 471 228Q471 231 470 235Q469 239 469 242Q473 244 484 248Q495 252 496 252Q505 252 510.50 246Q516 240 516 235Z"  horiz-adv-x="562" vert-adv-y="1000"  />

      
      <glyph glyph-name="uni2013" unicode="&#x2013;" d="M318 220Q318 215 313.50 208Q309 201 303 200Q300 199 269.50 196Q239 193 192 193Q178 193 156.50 194.50Q135 196 108 196Q103 196 87 193Q71 190 63 190Q44 190 44 205Q44 216 52 222Q60 228 69.50 231Q79 234 88.50 234.50Q98 235 101 235Q134 235 151 232.50Q168 230 182 230Q196 230 212 231Q228 232 244 233.50Q260 235 274 236.50Q288 238 298 238Q309 238 313.50 231.50Q318 225 318 220Z"  horiz-adv-x="350" vert-adv-y="1000"  />

      
      <glyph glyph-name="uni2014" unicode="&#x2014;" d="M403 210Q403 205 398.50 198Q394 191 388 190Q385 189 354.50 186Q324 183 277 183Q270 183 247 183.50Q224 184 197 185Q170 186 143.50 186.50Q117 187 104 187Q99 187 83 184Q67 181 59 181Q40 181 40 196Q40 207 48 213Q56 219 65.50 222Q75 225 84.50 225.50Q94 226 97 226Q113 226 139.50 225Q166 224 192 223Q218 222 239 221Q260 220 267 220Q281 220 297 221Q313 222 329 223.50Q345 225 359 226.50Q373 228 383 228Q394 228 398.50 221.50Q403 215 403 210Z"  horiz-adv-x="446" vert-adv-y="1000"  />

      
      <glyph glyph-name="uni2018" unicode="&#x2018;" d="M112 424Q112 419 105 410Q98 401 89.50 387.50Q81 374 74 354.50Q67 335 67 309Q67 282 73.50 260.50Q80 239 107 218Q107 210 101 206Q95 202 88 202Q71 202 59 214Q47 226 39 243Q31 260 27.50 278.50Q24 297 24 311Q24 330 32 351.50Q40 373 51.50 391Q63 409 76.50 421Q90 433 101 433Q104 433 108 429.50Q112 426 112 424Z"  horiz-adv-x="150" vert-adv-y="1000"  />

      
      <glyph glyph-name="uni2019" unicode="&#x2019;" d="M117 300Q117 282 109.50 267Q102 252 92 241.50Q82 231 73 225Q64 219 60 219Q57 219 52.50 223.50Q48 228 48 234Q48 235 52 241Q56 247 61.50 255.50Q67 264 71 275.50Q75 287 75 300Q75 326 70 346.50Q65 367 57 387Q56 390 54.50 394Q53 398 53 400Q53 407 57.50 409Q62 411 67 411Q74 411 83 398.50Q92 386 99.50 369Q107 352 112 332.50Q117 313 117 300Z"  horiz-adv-x="153" vert-adv-y="1000"  />

      
      <glyph glyph-name="uni201C" unicode="&#x201C;" d="M109 411Q109 401 106 386Q103 371 99 354.50Q95 338 92 321Q89 304 89 290Q89 271 87.50 253Q86 235 79 235Q69 235 63 242.50Q57 250 53.50 260.50Q50 271 48.50 283Q47 295 47 304Q47 315 48 322Q49 329 49 331Q49 337 52.50 353.50Q56 370 61.50 388Q67 406 74 420Q81 434 89 434Q100 434 104.50 426.50Q109 419 109 411M211 398Q210 398 206.50 387.50Q203 377 198.50 363Q194 349 190.50 335Q187 321 187 315Q187 309 189.50 299.50Q192 290 200 274Q196 270 191 265Q186 260 182 260Q174 260 167.50 266.50Q161 273 156 282.50Q151 292 148 302Q145 312 145 319Q145 326 146.50 337.50Q148 349 150 360.50Q152 372 155.50 381Q159 390 162 393Q170 400 178 405.50Q186 411 197 411Q202 411 207 409.50Q212 408 212 402Q212 401 211.50 400Q211 399 211 398Z"  horiz-adv-x="238" vert-adv-y="1000"  />

      
      <glyph glyph-name="uni201D" unicode="&#x201D;" d="M170 318Q170 313 167.50 304Q165 295 161 286Q157 277 152 270Q147 263 142 263Q133 263 130.50 268Q128 273 128 281Q128 282 128.50 288Q129 294 130 302Q131 310 131.50 318Q132 326 132 330Q132 335 127 343.50Q122 352 116.50 361Q111 370 106 379Q101 388 101 394Q101 402 105 404Q109 406 116 406Q132 406 142.50 394Q153 382 159 366.50Q165 351 167.50 336.50Q170 322 170 318M84 326Q84 312 80.50 298.50Q77 285 71.50 274.50Q66 264 59.50 257.50Q53 251 47 251Q36 251 36 264Q36 278 41.50 290Q47 302 47 313Q47 323 40.50 336Q34 349 25.50 361.50Q17 374 10.50 384Q4 394 4 397Q4 419 25 419Q33 419 43.50 407.50Q54 396 63 380.50Q72 365 78 349.50Q84 334 84 326Z"  horiz-adv-x="206" vert-adv-y="1000"  />

      
      <glyph glyph-name="unidf" unicode="&#xdf;" d="M448 201Q448 184 441 168.50Q434 153 423 139.50Q412 126 399.50 114.50Q387 103 376 95Q372 92 358 81.50Q344 71 326.50 60Q309 49 291.50 40.50Q274 32 263 32Q255 32 251 39.50Q247 47 247 52Q247 58 254 71Q261 84 272 92Q275 94 279 95Q283 96 288 97Q292 98 298 98Q326 113 349 130Q369 144 385 161.50Q401 179 401 198Q401 201 391.50 204Q382 207 362 207Q342 207 321 200.50Q300 194 281 186Q262 178 247 171.50Q232 165 223 165Q206 165 199 174.50Q192 184 192 194Q192 205 196 217Q200 229 211 236Q224 244 245.50 265Q267 286 288.50 311Q310 336 327.50 360Q345 384 350 399Q358 399 365 392Q372 385 372 372Q372 348 360.50 327Q349 306 331.50 287.50Q314 269 294.50 252.50Q275 236 259 221Q280 231 308.50 242Q337 253 356 253Q361 253 376 252Q391 251 407 246.50Q423 242 435.50 231Q448 220 448 201M319 541Q320 539 321 533.50Q322 528 322 522Q322 515 317 515Q315 515 312 516Q309 517 307 518Q298 522 287 528.50Q276 535 263 541.50Q250 548 235 552.50Q220 557 204 557Q168 557 146 530Q124 503 112.50 467.50Q101 432 97.50 398Q94 364 94 349Q94 317 100 289Q106 261 115 236Q124 211 134 189Q144 167 152 147Q158 133 171 108Q184 83 196.50 53.50Q209 24 219-7Q229-38 229-64Q229-69 226.50-82.50Q224-96 219.50-110Q215-124 207-135Q199-146 189-146Q181-146 171.50-141.50Q162-137 162-126Q162-110 170-96Q178-82 178-66Q178-49 167.50-18Q157 13 144 45Q131 77 119.50 102Q108 127 105 132Q94 152 83.50 179.50Q73 207 64.50 238.50Q56 270 51 304Q46 338 46 371Q46 407 54.50 447Q63 487 81.50 520.50Q100 554 128 575.50Q156 597 195 597Q213 597 233.50 592.50Q254 588 271.50 580.50Q289 573 302 563Q315 553 319 541Z"  horiz-adv-x="491" vert-adv-y="1000"  />

      
      <glyph glyph-name="unib4" unicode="&#xb4;" d="M220 504Q220 496 208 481Q196 466 179.50 450Q163 434 145.50 420.50Q128 407 118 402Q110 398 104 397Q98 396 94 396Q86 396 74 405Q62 414 62 422Q62 424 71 427.50Q80 431 91 437Q101 443 117.50 456.50Q134 470 150.50 483.50Q167 497 180.50 507Q194 517 199 517Q206 517 213 513Q220 509 220 504Z"  horiz-adv-x="268" vert-adv-y="1000"  />

      
      <glyph glyph-name="unie1" unicode="&#xe1;" d="M515 208Q515 190 498.50 163.50Q482 137 454 112Q426 87 389 69.50Q352 52 312 52Q294 52 274 58Q254 64 235 75.50Q216 87 201 103.50Q186 120 179 141Q173 135 164.50 121Q156 107 146 92.50Q136 78 124 67.50Q112 57 99 57Q86 57 77.50 70.50Q69 84 64 100.50Q59 117 57 132Q55 147 55 149Q55 161 62 194.50Q69 228 83 264Q97 300 118.50 328Q140 356 169 356Q180 356 183.50 346.50Q187 337 187 328L187 298Q192 294 197.50 292.50Q203 291 207.50 288.50Q212 286 214.50 281Q217 276 217 265Q217 258 216 252.50Q215 247 215 242Q215 216 219 191Q223 166 235 146.50Q247 127 268 114.50Q289 102 324 102Q368 102 398.50 120.50Q429 139 449.50 161.50Q470 184 482 202.50Q494 221 502 221Q515 221 515 208M164 252Q164 256 162 259.50Q160 263 160 266Q160 270 162 273Q164 276 164 281Q164 284 162 285.50Q160 287 160 289Q151 287 141.50 272Q132 257 123.50 237Q115 217 110 196.50Q105 176 105 163Q105 156 109 140Q113 124 118 119Q135 154 149.50 187Q164 220 164 252M289 504Q289 496 277 481Q265 466 248.50 450Q232 434 214.50 420.50Q197 407 187 402Q179 398 173 397Q167 396 163 396Q155 396 143 405Q131 414 131 422Q131 424 140 427.50Q149 431 160 437Q170 443 186.50 456.50Q203 470 219.50 483.50Q236 497 249.50 507Q263 517 268 517Q275 517 282 513Q289 509 289 504Z"  horiz-adv-x="487" vert-adv-y="1000"  />

      
      <glyph glyph-name="unie9" unicode="&#xe9;" d="M318 105Q319 103 319 99Q319 93 310 81Q307 77 297 68Q287 59 270 50Q253 41 228.50 34Q204 27 171 27Q148 27 126 37.50Q104 48 87 68.50Q70 89 59 119.50Q48 150 48 191Q48 230 58 264Q68 298 83.50 324Q99 350 118 365Q137 380 155 380Q171 380 187.50 373.50Q204 367 217.50 357Q231 347 239 334.50Q247 322 247 309Q247 294 233.50 278Q220 262 201 248.50Q182 235 163 226.50Q144 218 133 218Q127 218 122.50 223.50Q118 229 118 237Q118 251 130.50 259Q143 267 158 273.50Q173 280 185.50 289Q198 298 198 314Q198 316 193 324Q188 332 166 332Q156 332 143 320.50Q130 309 118 289.50Q106 270 98 243.50Q90 217 90 186Q90 160 99.50 139Q109 118 124 103.50Q139 89 159 81Q179 73 200 73Q215 73 232.50 79.50Q250 86 265.50 93.50Q281 101 292.50 107.50Q304 114 307 114Q310 114 313.50 111Q317 108 318 105M261 528Q261 520 249 505Q237 490 220.50 474Q204 458 186.50 444.50Q169 431 159 426Q151 422 145 421Q139 420 135 420Q127 420 115 429Q103 438 103 446Q103 448 112 451.50Q121 455 132 461Q142 467 158.50 480.50Q175 494 191.50 507.50Q208 521 221.50 531Q235 541 240 541Q247 541 254 537Q261 533 261 528Z"  horiz-adv-x="349" vert-adv-y="1000"  />

      
      <glyph glyph-name="unif3" unicode="&#xf3;" d="M219 216Q219 194 213 174Q207 154 197 139Q187 124 173.50 115.50Q160 107 144 107Q116 107 100 123Q84 139 75.50 160Q67 181 64.50 202.50Q62 224 62 235Q62 253 67.50 275.50Q73 298 82.50 317Q92 336 104 349Q116 362 129 362Q132 362 138.50 360Q145 358 152 354Q159 350 164.50 344Q170 338 172 330Q183 329 194 322Q205 315 206 311Q214 285 216.50 259Q219 233 219 216M174 234Q174 249 171 265.50Q168 282 159 299Q157 298 154 298Q150 298 147.50 299Q145 300 143 300Q131 300 124 293.50Q117 287 113.50 276.50Q110 266 109 254Q108 242 108 231Q108 220 109 206.50Q110 193 113.50 181Q117 169 123 160.50Q129 152 139 152Q149 152 156 162.50Q163 173 167 187Q171 201 172.50 214.50Q174 228 174 234M252 508Q252 500 240 485Q228 470 211.50 454Q195 438 177.50 424.50Q160 411 150 406Q142 402 136 401Q130 400 126 400Q118 400 106 409Q94 418 94 426Q94 428 103 431.50Q112 435 123 441Q133 447 149.50 460.50Q166 474 182.50 487.50Q199 501 212.50 511Q226 521 231 521Q238 521 245 517Q252 513 252 508Z"  horiz-adv-x="280" vert-adv-y="1000"  />

      
      <glyph glyph-name="unifa" unicode="&#xfa;" d="M369 166Q369 157 357 147Q345 137 329 128.50Q313 120 296.50 114Q280 108 272 108Q263 108 252.50 113Q242 118 232.50 125Q223 132 216 138Q209 144 207 146Q204 143 198 134Q192 125 183.50 114.50Q175 104 165.50 96Q156 88 146 88Q120 88 101 116Q82 144 69.50 180Q57 216 50.50 249.50Q44 283 44 295Q44 302 51.50 306.50Q59 311 63 311Q77 311 82 301.50Q87 292 87 281Q87 272 92.50 249Q98 226 106 202Q114 178 123 159.50Q132 141 139 141Q152 141 161.50 157.50Q171 174 177 195.50Q183 217 186 236.50Q189 256 189 262Q189 263 189.50 268.50Q190 274 191 280Q192 286 192.50 291Q193 296 193 298Q193 305 190 307.50Q187 310 187 318Q187 324 193 329.50Q199 335 219 335Q227 335 231.50 330.50Q236 326 238 320Q240 314 240.50 308.50Q241 303 241 301Q241 300 240 287Q239 274 238.50 258.50Q238 243 237 229Q236 215 236 212Q236 209 239 200Q242 191 246.50 181.50Q251 172 257 164.50Q263 157 270 157Q282 157 292.50 160.50Q303 164 312.50 168.50Q322 173 330 176.50Q338 180 345 180Q354 180 361.50 176Q369 172 369 166M241 487Q241 479 229 464Q217 449 200.50 433Q184 417 166.50 403.50Q149 390 139 385Q131 381 125 380Q119 379 115 379Q107 379 95 388Q83 397 83 405Q83 407 92 410.50Q101 414 112 420Q122 426 138.50 439.50Q155 453 171.50 466.50Q188 480 201.50 490Q215 500 220 500Q227 500 234 496Q241 492 241 487Z"  horiz-adv-x="369" vert-adv-y="1000"  />

      
      <glyph glyph-name="unic1" unicode="&#xc1;" d="M354-44Q355-48 355-51.50Q355-55 355-57Q355-67 350.50-71Q346-75 333-75Q321-75 317-71Q311-65 301-40Q291-15 280 19Q269 53 258.50 92Q248 131 240 166Q229 161 210 155.50Q191 150 171 145Q148 140 123 134Q114 91 109.50 60.50Q105 30 101.50 10.50Q98-9 92.50-18.50Q87-28 75-28Q67-28 61-19Q55-10 55 8Q55 17 60 50Q65 83 71 123.50Q77 164 83 204Q89 244 91 267Q92 279 97.50 306Q103 333 109 361.50Q115 390 121 413Q127 436 129 439Q145 476 149.50 515Q154 554 156.50 586.50Q159 619 165 639.50Q171 660 190 660Q195 660 200.50 652Q206 644 211 633Q216 622 219 611.50Q222 601 223 595Q224 589 225.50 571Q227 553 228.50 531.50Q230 510 231.50 489.50Q233 469 234 458Q237 425 243.50 384Q250 343 257 307Q264 271 270 246.50Q276 222 279 222Q283 222 289.50 224Q296 226 302 226Q310 226 310 218Q310 210 306 205Q302 200 297.50 196Q293 192 289.50 189Q286 186 286 182Q286 174 295 141L311 82Q313 74 320 55Q327 36 334.50 15.50Q342-5 348-22.50Q354-40 354-44M132 185Q138 185 154 188.50Q170 192 187 197Q204 202 217 207Q230 212 230 215Q230 218 226.50 230.50Q223 243 218.50 262.50Q214 282 209 307Q204 332 200 360Q198 378 195 409Q192 440 189 470.50Q186 501 184 523Q182 545 182 545Q182 545 179 530.50Q176 516 172.50 498.50Q169 481 166.50 465.50Q164 450 164 448L164 420Q164 418 161.50 402.50Q159 387 155 363.50Q151 340 146.50 312.50Q142 285 138 260Q134 235 131.50 215.50Q129 196 129 189Q129 185 132 185M290 816Q290 808 278 793Q266 778 249.50 762Q233 746 215.50 732.50Q198 719 188 714Q180 710 174 709Q168 708 164 708Q156 708 144 717Q132 726 132 734Q132 736 141 739.50Q150 743 161 749Q171 755 187.50 768.50Q204 782 220.50 795.50Q237 809 250.50 819Q264 829 269 829Q276 829 283 825Q290 821 290 816Z"  horiz-adv-x="406" vert-adv-y="1000"  />

      
      <glyph glyph-name="unida" unicode="&#xda;" d="M440-46Q440-58 434-61.50Q428-65 420-65Q414-65 404-63Q399-62 389.50-53.50Q380-45 369-34Q357-22 343-7L293 50Q291 47 284 37.50Q277 28 266.50 17.50Q256 7 242-1Q228-9 212-9Q201-9 185.50-2.50Q170 4 154 16Q138 28 122.50 45Q107 62 96 83Q82 110 72.50 139.50Q63 169 57.50 199Q52 229 50 258.50Q48 288 48 314Q48 351 51.50 367Q55 383 75 383Q83 383 87.50 377.50Q92 372 92 366Q92 310 100 252.50Q108 195 123 147.50Q138 100 160.50 70Q183 40 213 40Q226 40 236 49.50Q246 59 252.50 72Q259 85 262 97Q265 109 266 115Q260 129 253.50 152.50Q247 176 242 204Q237 232 234 262Q231 292 231 320Q231 363 231.50 390.50Q232 418 235 433.50Q238 449 244 454.50Q250 460 261 460Q267 460 272.50 456.50Q278 453 281.50 449Q285 445 287 441Q289 437 289 436Q289 432 287 429.50Q285 427 285 423Q285 415 287.50 400Q290 385 293 369Q299 337 304.50 296Q310 255 310 201L310 159Q310 151 318.50 126.50Q327 102 357 55Q377 23 394.50 4Q412-15 423-26Q430-32 435-37.50Q440-43 440-46M287 288Q286 294 284 303Q282 312 279.50 321Q277 330 275.50 336Q274 342 274 342Q274 331 274.50 315.50Q275 300 276.50 284.50Q278 269 280 254.50Q282 240 285 230Q285 237 286 244Q286 250 286.50 257.50Q287 265 287 273L287 288M262 581Q262 573 250 558Q238 543 221.50 527Q205 511 187.50 497.50Q170 484 160 479Q152 475 146 474Q140 473 136 473Q128 473 116 482Q104 491 104 499Q104 501 113 504.50Q122 508 133 514Q143 520 159.50 533.50Q176 547 192.50 560.50Q209 574 222.50 584Q236 594 241 594Q248 594 255 590Q262 586 262 581Z"  horiz-adv-x="399" vert-adv-y="1000"  />

      
      <glyph glyph-name="uni5e" unicode="&#x5e;" d="M218 438Q224 467 227.50 474Q231 481 242 481Q252 481 258 474Q264 467 272.50 453.50Q281 440 294.50 419.50Q308 399 334 372Q341 363 366 344.50Q391 326 418.50 306.50Q446 287 467.50 268.50Q489 250 489 241Q489 236 485 229Q481 222 474 222Q465 222 449 232Q433 242 412.50 258Q392 274 368.50 294Q345 314 323.50 334Q302 354 282.50 372Q263 390 251 403Q236 343 213.50 282Q191 221 168 164L136 82Q132 80 129 78Q126 76 122 76Q117 76 110.50 80Q104 84 104 90Q104 98 110.50 118.50Q117 139 126 163.50Q135 188 144.50 211.50Q154 235 160 250Q166 266 174 290Q182 314 190.50 340.50Q199 367 206 392.50Q213 418 218 438Z"  horiz-adv-x="576" vert-adv-y="1000"  />

      
      </font>
</defs>
</svg>
